<svg width="83" height="142" viewBox="0 0 83 142" fill="none" xmlns="http://www.w3.org/2000/svg">
<path fill-rule="evenodd" clip-rule="evenodd" d="M64.7378 139.115V139.12C64.7425 139.216 64.6775 139.313 64.5521 139.337L59.1996 140.395L58.6286 140.505L54.743 141.27L54.3298 141.352L52.8165 141.65L52.8118 141.64C52.8025 141.592 52.7747 141.515 52.7422 141.4C52.6586 141.126 52.5147 140.654 52.3151 140.015C52.278 139.894 52.2408 139.765 52.199 139.635C50.6578 134.657 46.4983 121.349 42.3574 108.122V108.118C42.9656 108.161 43.5598 108.185 44.154 108.19C46.6654 108.219 49.0701 107.944 51.512 107.435C51.9484 109.661 52.3754 111.879 52.8025 114.043C52.8304 114.206 52.8629 114.37 52.8954 114.534C55.3604 127.163 57.4587 137.908 57.5841 138.365L59.9238 138.548L60.3927 138.581H60.3973L63.3776 138.812H63.3823L64.5521 138.904C64.6218 138.918 64.6682 138.952 64.7007 139C64.7285 139.038 64.7378 139.072 64.7378 139.115Z" fill="#E2BCAB"/>
<path fill-rule="evenodd" clip-rule="evenodd" d="M33.5424 108.556C32.1729 110.431 30.7292 112.269 29.2251 114.063C29.0719 114.241 28.9233 114.418 28.7701 114.596C22.0852 122.46 14.2444 129.458 6.29223 135.119L7.10927 137.403L8.11665 140.207L8.50196 141.28C8.51588 141.338 8.5066 141.391 8.47874 141.429C8.40447 141.559 8.18628 141.597 8.07487 141.453L0.00195312 131.921C0.00195312 131.916 0.00195312 131.916 0.0065954 131.911C0.0947986 131.848 0.17836 131.786 0.266563 131.719C5.99977 127.549 12.0858 121.652 16.3149 116.285C19.2627 112.548 21.6025 108.95 23.8864 104.958C24.5132 105.309 25.1352 105.631 25.7619 105.934C28.278 107.142 30.8313 107.959 33.5424 108.556Z" fill="#E2BCAB"/>
<path fill-rule="evenodd" clip-rule="evenodd" d="M39.4783 98.5138C39.4598 98.5955 39.4412 98.6725 39.4226 98.7543C39.3391 99.1294 39.2555 99.5094 39.1719 99.8845C38.8795 101.169 38.5824 102.448 38.2806 103.727C38.276 103.737 38.276 103.747 38.2713 103.756C38.0531 104.689 37.8257 105.618 37.5982 106.546C37.575 106.637 37.51 106.762 37.4125 106.801C37.4079 106.805 37.3986 106.81 37.3893 106.81C37.3104 106.834 37.2222 106.801 37.25 106.69C37.7328 104.728 38.2017 102.761 38.6474 100.789C38.8238 100.029 38.9955 99.2641 39.1626 98.5042C39.4226 97.3354 39.6779 96.1667 39.924 94.9932C39.9472 94.8873 40.0261 94.7575 40.1329 94.7286C40.2164 94.7046 40.2954 94.7334 40.2722 94.8441C40.0215 96.0416 39.7615 97.2344 39.4969 98.4272C39.4923 98.4561 39.483 98.4849 39.4783 98.5138ZM53.8208 73.8262H28.0295C27.6349 74.4562 18.9363 90.5731 18.1053 91.9295C18.9873 93.0405 18.2724 92.8385 17.8593 92.3431C16.4062 94.7286 14.9187 98.0689 15.9791 98.8889C16.2484 99.216 16.5594 99.5094 16.8612 99.7883C19.2705 101.972 21.5777 103.65 23.8849 104.954C24.5116 105.305 25.1337 105.627 25.7604 105.93C28.2765 107.137 30.8298 107.955 33.5409 108.551C34.5854 108.782 35.6531 108.975 36.7533 109.148C36.9204 108.551 37.0876 107.96 37.2547 107.363C39.0327 107.758 40.7225 108.003 42.3565 108.114C42.9647 108.157 43.5589 108.181 44.1531 108.186C46.6646 108.215 49.0693 107.941 51.5111 107.431C52.8063 107.161 59.4224 105.93 59.4224 105.93C59.3678 105.933 54.0019 74.8939 53.8208 73.8262Z" fill="#F4B76A"/>
<path fill-rule="evenodd" clip-rule="evenodd" d="M29.2535 90.2928C27.4662 93.8951 22.8796 94.9821 19.4258 93.4671C18.8316 93.2026 18.2745 92.8418 17.8613 92.3464C17.9402 92.2118 18.0238 92.0723 18.1074 91.9328C18.9894 93.0438 20.5631 93.4815 21.8908 93.645C23.7152 93.8759 25.6232 93.5152 27.1412 92.409C27.9165 91.8463 28.5478 91.1008 28.9842 90.2302C29.0121 90.1725 29.0538 90.1292 29.0956 90.1052C29.1745 90.0571 29.2628 90.0619 29.2813 90.1292C29.2952 90.1629 29.2906 90.2206 29.2535 90.2928Z" fill="#2A4D52"/>
<path fill-rule="evenodd" clip-rule="evenodd" d="M8.63719 141.947C8.72307 141.868 8.73328 141.733 8.65715 141.642L8.63858 141.62L7.49704 140.26L8.11586 140.208L7.10848 137.402L5.22604 137.56L0.709111 132.184L0.365583 131.775C0.289449 131.686 0.157145 131.678 0.0712624 131.755C-0.0146196 131.833 -0.0248326 131.97 0.0513007 132.059L5.11695 138.087L6.98036 140.304L8.34287 141.926C8.419 142.017 8.5513 142.023 8.63719 141.947Z" fill="#FCE4F1"/>
<path fill-rule="evenodd" clip-rule="evenodd" d="M48.173 113.187C48.1637 113.197 48.1637 113.211 48.173 113.221C48.5676 113.673 49.0504 114.053 49.5935 114.317C50.1413 114.577 50.7402 114.726 51.3483 114.75C51.8682 114.774 52.4021 114.721 52.8942 114.534C52.8617 114.37 52.8292 114.207 52.8013 114.043C52.3325 114.207 51.8543 114.346 51.3483 114.365C50.2295 114.413 49.0736 113.995 48.2055 113.187C48.1962 113.177 48.1823 113.177 48.173 113.187Z" fill="#672448"/>
<path fill-rule="evenodd" clip-rule="evenodd" d="M24.3299 112.032C24.5946 112.58 24.9613 113.076 25.4116 113.489C25.8712 113.893 26.4097 114.201 26.99 114.398C27.5563 114.586 28.1691 114.692 28.768 114.596C28.9212 114.418 29.0697 114.24 29.2229 114.062C29.0651 114.086 28.9072 114.105 28.7494 114.115C28.2016 114.148 27.6399 114.158 27.0875 114.028C25.9965 113.759 24.9984 113.028 24.3717 112.008C24.3671 111.998 24.3485 111.994 24.3392 112.003C24.3299 112.008 24.3253 112.023 24.3299 112.032Z" fill="#672448"/>
<path fill-rule="evenodd" clip-rule="evenodd" d="M29.2535 90.2928C27.4662 93.8951 22.8796 94.9821 19.4258 93.4671C18.8316 93.2026 18.2745 92.8418 17.8613 92.3464C17.9402 92.2118 18.0238 92.0723 18.1074 91.9328C18.9894 93.0438 20.5631 93.4815 21.8908 93.645C23.7152 93.8759 25.6232 93.5152 27.1412 92.409C27.9165 91.8463 28.5478 91.1008 28.9842 90.2302C29.0121 90.1725 29.0538 90.1292 29.0956 90.1052C29.1745 90.0571 29.2628 90.0619 29.2813 90.1292C29.2952 90.1629 29.2906 90.2206 29.2535 90.2928Z" fill="#96DAD5"/>
<path fill-rule="evenodd" clip-rule="evenodd" d="M40.2735 94.847C40.0228 96.0445 39.7628 97.2373 39.4982 98.4301C39.4936 98.459 39.4843 98.4878 39.4796 98.5167C39.4611 98.5984 39.4425 98.6754 39.4239 98.7571C39.3404 99.1323 39.2568 99.5122 39.1733 99.8874C38.8808 101.172 38.5837 102.451 38.2819 103.73C38.2773 103.74 38.2773 103.749 38.2727 103.759C38.0545 104.692 37.827 105.62 37.5995 106.549C37.5763 106.64 37.5113 106.765 37.4138 106.804C37.4092 106.808 37.3999 106.813 37.3906 106.813C37.3117 106.837 37.2235 106.804 37.2513 106.693C37.7341 104.731 38.203 102.764 38.6487 100.792C38.8251 100.032 38.9968 99.267 39.164 98.507C39.4239 97.3383 39.6793 96.1696 39.9253 94.996C39.9485 94.8902 40.0274 94.7604 40.1342 94.7315C40.2178 94.7075 40.2967 94.7363 40.2735 94.847Z" fill="#96DAD5"/>
<path fill-rule="evenodd" clip-rule="evenodd" d="M65.069 139.272C65.0476 139.155 64.9404 139.077 64.8262 139.098L64.7983 139.103L63.0876 139.429L63.3922 138.781L60.4847 138.384L59.6876 140.078L52.9211 141.367L52.4067 141.465C52.2939 141.487 52.2196 141.601 52.2396 141.716C52.2614 141.833 52.37 141.912 52.4824 141.89L60.0697 140.444L62.8602 139.912L64.9018 139.523C65.0165 139.502 65.0889 139.387 65.069 139.272Z" fill="#FCE4F1"/>
<path fill-rule="evenodd" clip-rule="evenodd" d="M47.7256 62.8438C47.7256 62.8438 47.7256 62.8493 47.7217 62.8493V62.8438H47.7256Z" fill="#E2BCAB"/>
<path fill-rule="evenodd" clip-rule="evenodd" d="M81.2198 52.0459C80.2124 52.8587 80.1567 53.0944 79.1029 53.8447C78.3833 54.3545 77.6081 54.8788 76.8003 55.3164C75.5283 55.9946 74.2842 58.9332 73.4115 60.1597C71.8331 62.3625 70.2501 64.5941 68.5139 66.6671C65.8724 69.8366 62.3536 73.4822 58.013 72.2173C56.3047 71.7219 54.7913 70.736 53.3708 69.6201V69.6153L53.1062 68.3793C52.8137 67.0326 52.5166 65.6955 52.2148 64.3921L54.2017 61.5641C54.5174 61.8238 54.8563 62.1028 55.2138 62.3961C56.7411 63.6466 59.0901 65.1184 61.0584 64.0025C61.6665 63.6563 62.1261 63.0935 62.5718 62.5404C65.6032 58.7745 69.0756 55.8647 71.4339 51.589C72.3762 49.8672 75.6722 47.3229 75.7326 47.3758C76.87 48.4099 73.3047 50.858 75.3566 51.3918C76.2108 51.6131 77.5988 50.6415 78.2348 50.1221C79.7017 48.9149 81.1037 48.2463 81.3683 48.6263C81.5215 48.8475 79.0425 51.2187 78.4808 51.8632C79.2422 51.7381 82.19 49.8672 82.9096 50.0307C83.4527 50.1461 81.3915 51.9113 81.2198 52.0459Z" fill="#E2BCAB"/>
<path fill-rule="evenodd" clip-rule="evenodd" d="M42.5181 55.6007H42.5134L42.4902 55.418C42.4995 55.4757 42.5088 55.5334 42.5181 55.6007Z" fill="#96DAD5"/>
<path fill-rule="evenodd" clip-rule="evenodd" d="M47.7256 62.8438C47.7256 62.8438 47.7256 62.8493 47.7217 62.8493V62.8438H47.7256Z" fill="#96DAD5"/>
<path fill-rule="evenodd" clip-rule="evenodd" d="M48.2895 52.3776C48.011 52.2045 47.7696 52.0505 47.5746 51.9351C47.2728 51.7475 47.0871 51.6369 47.0546 51.6177V55.1287C47.0546 55.3066 47.0129 55.4605 46.9339 55.5856C46.8922 55.6481 46.8457 55.7058 46.79 55.7587C46.7158 55.8261 46.6276 55.8838 46.5254 55.9319C46.479 55.9559 46.4326 55.9752 46.3862 55.9896C46.2887 56.0281 46.1819 56.0569 46.0658 56.0762C46.0241 56.0858 45.9776 56.0906 45.9312 56.0954C45.7641 56.1243 45.5784 56.1339 45.3834 56.1339C45.2906 56.1339 45.1931 56.1291 45.0956 56.1243C45.0213 56.1195 44.9424 56.1146 44.8681 56.105C44.7892 56.1002 44.7103 56.0906 44.6267 56.081C44.5385 56.0714 44.4457 56.0617 44.3528 56.0425C44.1207 56.0088 43.884 55.9607 43.6379 55.9078C43.5219 55.8838 43.4058 55.8549 43.2898 55.8213C43.2573 55.8165 43.2248 55.8068 43.1923 55.7972C42.9694 55.7395 42.742 55.6722 42.5191 55.6H42.5145C42.4727 55.5856 42.4309 55.576 42.3938 55.5615C42.0085 55.4365 41.6278 55.2922 41.2564 55.1335C41.1125 55.071 40.9733 55.0084 40.834 54.9459C40.7226 54.893 40.6158 54.8401 40.509 54.7872C40.3883 54.7247 40.2723 54.6622 40.1562 54.5996C40.0309 54.5323 39.9102 54.4601 39.7941 54.388C39.7756 54.3832 39.7616 54.3736 39.7477 54.364V54.3591C39.6966 54.3351 39.6502 54.3014 39.6038 54.2726C39.5527 54.2437 39.5063 54.2149 39.4645 54.1812C39.446 54.1716 39.4274 54.162 39.4135 54.1475C39.3438 54.0994 39.2742 54.0513 39.2092 54.0032C39.0189 53.8686 38.8471 53.7291 38.6939 53.5848L38.745 52.2189L38.796 50.8626C38.5314 50.8241 38.2715 50.8097 38.0161 50.8193C37.9697 50.8145 37.9233 50.8193 37.8769 50.8241C37.8769 50.8241 37.8629 50.8241 37.8397 50.8289C37.8212 50.8289 37.7933 50.8337 37.7655 50.8337C37.7422 50.8385 37.7144 50.8385 37.6912 50.8385H37.668C37.4544 50.8578 37.2502 50.8914 37.0459 50.9443C36.7256 51.0165 36.4192 51.1271 36.1221 51.2618C36.8881 54.4217 38.3272 60.4721 38.3272 60.4769C38.3829 62.2036 35.8946 73.2416 31.9812 73.9149C31.5355 73.9967 31.0759 74.0352 30.6024 74.0352H29.5579C29.1494 74.6315 28.7362 75.2327 28.3324 75.8195L28.3277 75.8243C26.9211 78.3061 25.7188 80.4704 25.3752 81.0956C25.3613 81.1245 25.352 81.1485 25.3381 81.1726C25.2499 81.3361 25.1617 81.4996 25.0781 81.668C25.222 81.7257 25.3659 81.7786 25.5145 81.8363C26.0437 82.0383 26.5822 82.2259 27.1207 82.3942C27.6964 82.5818 28.2813 82.7549 28.8662 82.9088C29.2794 83.0195 29.6972 83.1253 30.115 83.2167C30.4492 83.2936 30.7881 83.3658 31.127 83.4331C31.1874 83.4475 31.2477 83.4571 31.3127 83.4716C31.438 83.4956 31.5634 83.5197 31.6887 83.5437C31.8558 83.5774 32.0276 83.611 32.1947 83.6399H32.2087C35.2633 84.1978 38.3782 84.4191 41.4561 84.472H41.6696C42.1988 84.4623 42.7327 84.4479 43.2666 84.4287C43.9165 84.4046 44.5664 84.371 45.2163 84.3277C46.6368 84.2363 48.0574 84.092 49.4686 83.8804C50.3135 83.7553 51.1584 83.611 51.9987 83.4331C52.3933 83.3561 52.7879 83.2696 53.1778 83.1782C53.4842 83.106 53.7906 83.0339 54.097 82.9521C54.6448 82.8127 55.1879 82.6587 55.7264 82.4904C55.7728 82.476 55.8146 82.4616 55.861 82.4471C55.8053 82.1345 55.745 81.8171 55.6846 81.4996C55.6336 81.2063 55.5779 80.9081 55.5222 80.6051C55.369 79.7682 55.2065 78.9073 55.044 78.0271C54.7887 76.6708 54.5194 75.2808 54.2409 73.8716C54.1295 73.3137 54.0181 72.7558 53.9066 72.1979C53.8974 72.145 53.8834 72.0873 53.8741 72.0344C53.707 71.2264 53.5445 70.428 53.3728 69.62V69.6152L53.1082 68.3791C52.8157 67.0324 52.5186 65.6953 52.2169 64.3919L54.2037 61.5639L54.6401 60.9435L56.1721 58.7695L56.5713 58.1924C56.8498 57.7932 50.9309 54.0225 48.2895 52.3776Z" fill="#96DAD5"/>
<path fill-rule="evenodd" clip-rule="evenodd" d="M36.1201 51.2627C34.6067 51.9312 33.344 53.2827 32.2716 54.6102C29.8344 57.6402 28.0193 60.9348 25.8096 64.1235L26.2599 64.4506L26.4038 64.5612C26.4316 64.4939 26.4595 64.4313 26.4873 64.3688L29.0452 65.9367L29.4166 66.1676L30.8325 67.0285L31.2875 67.3075L32.7916 68.2309C31.6217 70.0826 29.853 73.1319 28.3303 75.8204C28.7342 75.2337 29.1474 74.6325 29.5559 74.0361H30.6004C31.0739 74.0361 31.5335 73.9976 31.9792 73.9158C35.8926 73.2425 38.3808 62.2045 38.3251 60.4779C38.3251 60.4731 36.886 54.4226 36.1201 51.2627Z" fill="#96DAD5"/>
<path fill-rule="evenodd" clip-rule="evenodd" d="M32.8219 68.8074C32.8219 68.8122 32.8219 68.8169 32.817 68.8169C32.8122 68.8169 32.8122 68.8122 32.8073 68.8122C32.8025 68.8074 32.8025 68.8074 32.8073 68.8027H32.8122C32.817 68.8027 32.817 68.8074 32.8219 68.8074Z" fill="#96DAD5"/>
<path fill-rule="evenodd" clip-rule="evenodd" d="M36.6734 62.1844L33.006 68.2012C32.9874 68.2301 32.9549 68.2349 32.9271 68.2205C32.7135 68.0858 32.5 67.9511 32.2911 67.8116C32.2818 67.8068 32.2725 67.7972 32.2632 67.7924C32.0497 67.6529 31.8361 67.5134 31.6226 67.374C31.2976 67.1623 30.7313 66.7776 30.4713 66.5996C30.3877 66.5371 30.332 66.5034 30.332 66.4986H30.3367C30.787 66.7583 31.228 67.0277 31.669 67.297C31.8918 67.4317 32.1147 67.5712 32.3375 67.7058C32.5418 67.8357 32.7414 67.9607 32.941 68.0906L32.9503 68.0714L36.6641 62.1796C36.6641 62.1748 36.6687 62.1748 36.6687 62.1748C36.6734 62.1796 36.6734 62.1796 36.6734 62.1844Z" fill="#2A8C79"/>
<path fill-rule="evenodd" clip-rule="evenodd" d="M32.7942 68.2303C31.6244 70.082 29.8557 73.1312 28.333 75.8198L28.3284 75.8246C26.9218 78.3063 25.7194 80.4707 25.3759 81.0959C25.362 81.1248 25.3527 81.1488 25.3387 81.1729C25.2505 81.3364 25.1623 81.4999 25.0788 81.6682C24.1503 83.4382 23.3286 85.2754 22.3909 87.0454C22.0102 87.762 21.6853 88.3632 21.4949 88.6854C21.481 88.7095 21.4578 88.7431 21.4346 88.7816C21.4346 88.7816 21.4346 88.7864 21.43 88.7864C21.0818 89.3443 20.6036 89.9023 20.1023 90.3592C20.093 90.364 20.0883 90.3688 20.0837 90.3784C20.0141 90.4361 19.9444 90.4986 19.8748 90.5564C19.5127 90.8642 18.821 91.5952 18.3521 91.4606C18.2593 91.4317 18.1757 91.374 18.1061 91.273C17.8415 90.893 18.6632 89.9311 18.8581 89.657C19.2388 89.1039 19.9816 88.3824 20.1162 87.7139C19.587 87.964 19.1042 88.4642 18.626 88.8009C17.8786 89.3347 17.1266 89.883 16.2817 90.2534C15.9289 90.4121 15.5528 90.0369 15.7432 89.6954C15.8499 89.5079 15.9985 89.3011 16.1749 89.0894C16.7552 88.3584 17.614 87.5648 18.0968 86.9828C17.0987 87.4782 15.3207 89.5848 14.2298 88.9211C13.7795 88.647 16.1006 86.6702 17.3076 85.3524C15.9753 85.9151 13.1853 87.0742 12.9996 86.4297C12.9624 85.843 14.7776 84.554 16.1656 83.9528C16.6391 83.7412 17.5072 82.5388 17.7811 81.8318C17.9436 81.4133 18.2221 81.0863 18.6585 80.7592C18.7699 80.4851 18.8721 80.2013 18.9928 79.9272C19.0902 79.7011 19.1877 79.4703 19.2945 79.2442C19.6891 78.3544 20.1162 77.4935 20.5711 76.6374C22.0334 73.8911 23.6443 71.2122 24.9256 68.3072C25.4177 67.2058 25.854 65.8207 26.4065 64.5605C26.4343 64.4932 26.4622 64.4307 26.49 64.3682L29.0479 65.9361L29.4193 66.1669L30.8352 67.0279L31.2901 67.3068L32.7942 68.2303Z" fill="#E2BCAB"/>
<path fill-rule="evenodd" clip-rule="evenodd" d="M47.7256 62.8438C47.7256 62.8438 47.7256 62.8493 47.7217 62.8493V62.8438H47.7256Z" fill="#E2BCAB"/>
<path fill-rule="evenodd" clip-rule="evenodd" d="M81.2198 52.0459C80.2124 52.8587 80.1567 53.0944 79.1029 53.8447C78.3833 54.3545 77.6081 54.8788 76.8003 55.3164C75.5283 55.9946 74.2842 58.9332 73.4115 60.1597C71.8331 62.3625 70.2501 64.5941 68.5139 66.6671C65.8724 69.8366 62.3536 73.4822 58.013 72.2173C56.3047 71.7219 54.7913 70.736 53.3708 69.6201V69.6153L53.1062 68.3793C52.8137 67.0326 52.5166 65.6955 52.2148 64.3921L54.2017 61.5641C54.5174 61.8238 54.8563 62.1028 55.2138 62.3961C56.7411 63.6466 59.0901 65.1184 61.0584 64.0025C61.6665 63.6563 62.1261 63.0935 62.5718 62.5404C65.6032 58.7745 69.0756 55.8647 71.4339 51.589C72.3762 49.8672 75.6722 47.3229 75.7326 47.3758C76.87 48.4099 73.3047 50.858 75.3566 51.3918C76.2108 51.6131 77.5988 50.6415 78.2348 50.1221C79.7017 48.9149 81.1037 48.2463 81.3683 48.6263C81.5215 48.8475 79.0425 51.2187 78.4808 51.8632C79.2422 51.7381 82.19 49.8672 82.9096 50.0307C83.4527 50.1461 81.3915 51.9113 81.2198 52.0459Z" fill="#E2BCAB"/>
<path fill-rule="evenodd" clip-rule="evenodd" d="M42.5181 55.6007H42.5134L42.4902 55.418C42.4995 55.4757 42.5088 55.5334 42.5181 55.6007Z" fill="#96DAD5"/>
<path fill-rule="evenodd" clip-rule="evenodd" d="M47.7256 62.8438C47.7256 62.8438 47.7256 62.8493 47.7217 62.8493V62.8438H47.7256Z" fill="#96DAD5"/>
<path fill-rule="evenodd" clip-rule="evenodd" d="M47.5746 51.9351C47.2728 51.7475 47.0871 51.6369 47.0546 51.6177L38.796 50.8626C38.5314 50.8241 38.2715 50.8097 38.0161 50.8193C37.9697 50.8145 37.9233 50.8193 37.8769 50.8241C37.8769 50.8241 37.8629 50.8241 37.8397 50.8289C37.8212 50.8289 37.7933 50.8337 37.7655 50.8337C37.7422 50.8385 37.7144 50.8385 37.6912 50.8385H37.668C37.4544 50.8578 37.2502 50.8914 37.0459 50.9443C36.7256 51.0165 36.4192 51.1271 36.1221 51.2618C36.8881 54.4217 38.3272 60.4721 38.3272 60.4769C38.3829 62.2036 35.8946 73.2416 31.9812 73.9149C31.5355 73.9967 31.0759 74.0352 30.6024 74.0352H29.5579C29.1494 74.6315 28.7362 75.2327 28.3324 75.8195L28.3277 75.8243C26.9211 78.3061 25.7188 80.4704 25.3752 81.0956C25.3613 81.1245 25.352 81.1485 25.3381 81.1726C25.2499 81.3361 25.1617 81.4996 25.0781 81.668C25.222 81.7257 25.3659 81.7786 25.5145 81.8363C26.0437 82.0383 26.5822 82.2259 27.1207 82.3942C27.6964 82.5818 28.2813 82.7549 28.8662 82.9088C29.2794 83.0195 29.6972 83.1253 30.115 83.2167C30.4492 83.2936 30.7881 83.3658 31.127 83.4331C31.1874 83.4475 31.2477 83.4571 31.3127 83.4716C31.438 83.4956 31.5634 83.5197 31.6887 83.5437C31.8558 83.5774 32.0276 83.611 32.1947 83.6399H32.2087C35.2633 84.1978 38.3782 84.4191 41.4561 84.472H41.6696C42.1988 84.4623 42.7327 84.4479 43.2666 84.4287C43.9165 84.4046 44.5664 84.371 45.2163 84.3277C46.6368 84.2363 48.0574 84.092 49.4686 83.8804C50.3135 83.7553 51.1584 83.611 51.9987 83.4331C52.3933 83.3561 52.7879 83.2696 53.1778 83.1782C53.4842 83.106 53.7906 83.0339 54.097 82.9521C54.6448 82.8127 55.1879 82.6587 55.7264 82.4904C55.7728 82.476 55.8146 82.4616 55.861 82.4471C55.8053 82.1345 55.745 81.8171 55.6846 81.4996C55.6336 81.2063 55.5779 80.9081 55.5222 80.6051C55.369 79.7682 55.2065 78.9073 55.044 78.0271C54.7887 76.6708 54.5194 75.2808 54.2409 73.8716C54.1295 73.3137 54.0181 72.7558 53.9066 72.1979C53.8974 72.145 53.8834 72.0873 53.8741 72.0344C53.707 71.2264 53.5445 70.428 53.3728 69.62V69.6152L53.1082 68.3791C52.8157 67.0324 52.5186 65.6953 52.2169 64.3919L54.2037 61.5639L54.6401 60.9435L56.1721 58.7695L56.5713 58.1924C56.8498 57.7932 50.9309 54.0225 48.2895 52.3776C48.011 52.2045 47.7696 52.0505 47.5746 51.9351Z" fill="#00025C"/>
<path fill-rule="evenodd" clip-rule="evenodd" d="M36.1201 51.2627C34.6067 51.9312 33.344 53.2827 32.2716 54.6102C29.8344 57.6402 28.0193 60.9348 25.8096 64.1235L26.2599 64.4506L26.4038 64.5612C26.4316 64.4939 26.4595 64.4313 26.4873 64.3688L29.0452 65.9367L29.4166 66.1676L30.8325 67.0285L31.2875 67.3075L32.7916 68.2309C31.6217 70.0826 29.853 73.1319 28.3303 75.8204C28.7342 75.2337 29.1474 74.6325 29.5559 74.0361H30.6004C31.0739 74.0361 31.5335 73.9976 31.9792 73.9158C35.8926 73.2425 38.3808 62.2045 38.3251 60.4779C38.3251 60.4731 36.886 54.4226 36.1201 51.2627Z" fill="#00025C"/>
<path fill-rule="evenodd" clip-rule="evenodd" d="M32.8219 68.8074C32.8219 68.8122 32.8219 68.8169 32.817 68.8169C32.8122 68.8169 32.8122 68.8122 32.8073 68.8122C32.8025 68.8074 32.8025 68.8074 32.8073 68.8027H32.8122C32.817 68.8027 32.817 68.8074 32.8219 68.8074Z" fill="#96DAD5"/>
<path fill-rule="evenodd" clip-rule="evenodd" d="M36.6734 62.1844L33.006 68.2012C32.9874 68.2301 32.9549 68.2349 32.9271 68.2205C32.7135 68.0858 32.5 67.9511 32.2911 67.8116C32.2818 67.8068 32.2725 67.7972 32.2632 67.7924C32.0497 67.6529 31.8361 67.5134 31.6226 67.374C31.2976 67.1623 30.7313 66.7776 30.4713 66.5996C30.3877 66.5371 30.332 66.5034 30.332 66.4986H30.3367C30.787 66.7583 31.228 67.0277 31.669 67.297C31.8918 67.4317 32.1147 67.5712 32.3375 67.7058C32.5418 67.8357 32.7414 67.9607 32.941 68.0906L32.9503 68.0714L36.6641 62.1796C36.6641 62.1748 36.6687 62.1748 36.6687 62.1748C36.6734 62.1796 36.6734 62.1796 36.6734 62.1844Z" fill="#2A8C79"/>
<path fill-rule="evenodd" clip-rule="evenodd" d="M32.7942 68.2303C31.6244 70.082 29.8557 73.1312 28.333 75.8198L28.3284 75.8246C26.9218 78.3063 25.7194 80.4707 25.3759 81.0959C25.362 81.1248 25.3527 81.1488 25.3387 81.1729C25.2505 81.3364 25.1623 81.4999 25.0788 81.6682C24.1503 83.4382 23.3286 85.2754 22.3909 87.0454C22.0102 87.762 21.6853 88.3632 21.4949 88.6854C21.481 88.7095 21.4578 88.7431 21.4346 88.7816C21.4346 88.7816 21.4346 88.7864 21.43 88.7864C21.0818 89.3443 20.6036 89.9023 20.1023 90.3592C20.093 90.364 20.0883 90.3688 20.0837 90.3784C20.0141 90.4361 19.9444 90.4986 19.8748 90.5564C19.5127 90.8642 18.821 91.5952 18.3521 91.4606C18.2593 91.4317 18.1757 91.374 18.1061 91.273C17.8415 90.893 18.6632 89.9311 18.8581 89.657C19.2388 89.1039 19.9816 88.3824 20.1162 87.7139C19.587 87.964 19.1042 88.4642 18.626 88.8009C17.8786 89.3347 17.1266 89.883 16.2817 90.2534C15.9289 90.4121 15.5528 90.0369 15.7432 89.6954C15.8499 89.5079 15.9985 89.3011 16.1749 89.0894C16.7552 88.3584 17.614 87.5648 18.0968 86.9828C17.0987 87.4782 15.3207 89.5848 14.2298 88.9211C13.7795 88.647 16.1006 86.6702 17.3076 85.3524C15.9753 85.9151 13.1853 87.0742 12.9996 86.4297C12.9624 85.843 14.7776 84.554 16.1656 83.9528C16.6391 83.7412 17.5072 82.5388 17.7811 81.8318C17.9436 81.4133 18.2221 81.0863 18.6585 80.7592C18.7699 80.4851 18.8721 80.2013 18.9928 79.9272C19.0902 79.7011 19.1877 79.4703 19.2945 79.2442C19.6891 78.3544 20.1162 77.4935 20.5711 76.6374C22.0334 73.8911 23.6443 71.2122 24.9256 68.3072C25.4177 67.2058 25.854 65.8207 26.4065 64.5605C26.4343 64.4932 26.4622 64.4307 26.49 64.3682L29.0479 65.9361L29.4193 66.1669L30.8352 67.0279L31.2901 67.3068L32.7942 68.2303Z" fill="#E2BCAB"/>
<path fill-rule="evenodd" clip-rule="evenodd" d="M54.2409 73.8729C54.1248 73.315 53.3904 69.7054 53.3904 69.7054L53.124 68.4549C52.8176 67.1082 52.5307 65.6961 52.215 64.3927C52.085 63.8588 51.6505 63.3351 51.5205 62.8205C51.4555 62.5607 51.3859 62.301 51.3255 62.0509C51.0609 61.0313 50.801 60.0405 50.5317 59.0978C50.4667 58.8622 50.4017 58.6313 50.3367 58.4004C50.3135 58.3379 50.2996 58.2754 50.281 58.2129C50.2021 57.9435 50.1278 57.6742 50.0489 57.4097C49.8539 56.7652 49.6636 56.1496 49.4686 55.5628C49.074 54.346 48.6794 53.2734 48.2895 52.3788C48.011 52.2057 47.7696 52.0518 47.5746 51.9364L48.6841 55.8466C48.6841 55.8466 48.9858 56.9095 48.9858 56.9143L49.6636 59.3046C49.8075 59.7952 49.8029 60.2906 49.6775 60.7523C49.6775 62.7483 46.7343 63.0657 45.2581 63.0417C43.8654 63.0176 41.3957 62.7514 40.8293 61.6212C39.822 59.6252 36.8647 51.0162 36.5444 51.0883C36.2241 51.1605 36.4192 51.1283 36.1221 51.263C36.8881 54.4229 38.3272 60.4734 38.3272 60.4782C38.3829 62.2048 35.8946 73.2428 31.9812 73.9162C31.5355 73.9979 31.0759 74.0364 30.6024 74.0364H29.5579C29.1494 74.6328 28.7362 75.234 28.3324 75.8208L28.3277 75.8256C26.9211 78.3073 25.7188 80.4716 25.3752 81.0969C25.3613 81.1257 25.352 81.1498 25.3381 81.1738C25.2499 81.3374 25.1617 81.5009 25.0781 81.6692C25.222 81.7269 25.3659 81.7798 25.5145 81.8375C26.0437 82.0396 26.5822 82.2271 27.1207 82.3955C27.6964 82.583 28.2813 82.7562 28.8662 82.9101C29.2794 83.0207 29.6972 83.1265 30.115 83.2179C30.4492 83.2949 30.7881 83.367 31.127 83.4343C31.1874 83.4488 31.2477 83.4584 31.3127 83.4728C31.438 83.4969 31.5634 83.5209 31.6887 83.545C31.8558 83.5786 32.0276 83.6123 32.1947 83.6411H32.2087C35.2633 84.1991 38.3782 84.4203 41.4561 84.4732H41.6696C42.1988 84.4636 42.7327 84.4492 43.2666 84.4299C43.9165 84.4059 44.5664 84.3722 45.2163 84.3289C46.6368 84.2375 48.0574 84.0932 49.4686 83.8816C50.3135 83.7566 51.1584 83.6123 51.9987 83.4343C52.3933 83.3574 52.7879 83.2708 53.1778 83.1794C53.4842 83.1073 53.7906 83.0351 54.097 82.9534C54.6448 82.8139 55.1879 82.66 55.7264 82.4917C55.7218 82.4772 55.8657 82.4628 55.8613 82.4484C55.8007 82.1357 54.5334 75.2821 54.2409 73.8729Z" fill="#F08946"/>
<path fill-rule="evenodd" clip-rule="evenodd" d="M44.2715 66.7794C44.5723 70.2202 46.477 72.8535 48.5261 72.6611C50.5748 72.4692 51.9916 69.5238 51.6912 66.083L44.2715 66.7794Z" fill="#00025C"/>
<path fill-rule="evenodd" clip-rule="evenodd" d="M38.0449 19.1943C38.7784 20.2236 39.6279 21.2576 40.5703 22.2436C44.8041 26.6973 49.2746 28.5923 50.5373 26.4857C50.5791 26.4183 50.6116 26.3414 50.6441 26.2644C50.5605 26.6877 50.4073 27.0917 50.1705 27.4332C49.5021 28.3951 48.3043 28.27 47.3666 27.9959C45.4772 27.4476 43.7271 26.3558 42.2276 24.9803C40.4821 23.3739 39.108 21.3827 38.0449 19.1943Z" fill="#E2BCAB"/>
<path fill-rule="evenodd" clip-rule="evenodd" d="M55.4171 21.0684C54.5119 20.6596 53.6206 20.2123 52.7432 19.7266C53.0728 19.8372 53.3977 19.943 53.7273 20.0488C56.6705 20.953 62.9097 23.2616 66.8603 24.1562C66.8928 24.2524 66.9207 24.3534 66.9439 24.4496H66.916C64.8363 24.3486 62.7983 23.8243 60.8254 23.1702C58.9917 22.5642 57.1812 21.8668 55.4171 21.0684Z" fill="#E2BCAB"/>
<path fill-rule="evenodd" clip-rule="evenodd" d="M27.1895 29.4432C27.3844 29.2412 27.5887 29.044 27.8162 28.8564C27.5887 29.0392 27.3844 29.2364 27.1895 29.4432ZM40.1089 46.3633L39.9928 46.3152C40.0903 46.3826 40.1925 46.4451 40.2946 46.5076C40.2296 46.4547 40.1646 46.4066 40.1089 46.3633Z" fill="#E2BCAB"/>
<path fill-rule="evenodd" clip-rule="evenodd" d="M29.6972 27.7061C29.6879 27.7109 29.6833 27.7157 29.674 27.7205C29.5254 27.7878 29.3954 27.86 29.2887 27.9081C28.7641 28.163 28.2674 28.4804 27.8171 28.8555C27.5896 29.0431 27.3853 29.2403 27.1904 29.4423C27 29.6491 26.8236 29.8607 26.6611 30.0772C26.819 29.8607 26.9907 29.6491 27.1764 29.4423C27.2786 29.3365 27.3807 29.2307 27.4875 29.1297C27.5989 29.0239 27.7103 28.9229 27.8263 28.8267C28.402 28.3457 29.0333 27.9754 29.6972 27.7061Z" fill="#E2BCAB"/>
<path fill-rule="evenodd" clip-rule="evenodd" d="M34.5287 34.181L34.4777 34.3012L34.3755 34.2339C34.0691 34.0367 33.6978 33.9357 33.3264 33.9309C32.9596 33.9261 32.5697 34.0175 32.3097 34.282C32.0358 34.5369 32.0219 34.9794 32.124 35.3401C32.2447 35.7056 32.5511 36.0038 32.9179 36.1L32.9086 36.1433C32.5233 36.0567 32.1844 35.7585 32.0405 35.3738C31.9198 34.989 31.9151 34.508 32.2169 34.1858C32.5047 33.8732 32.9318 33.7626 33.3264 33.7577C33.6838 33.7481 34.0459 33.8155 34.3709 33.9886C34.5519 33.4547 34.4916 32.868 34.1806 32.4207C33.851 31.9397 33.3171 31.6367 32.774 31.4251C32.2215 31.2231 31.632 31.1125 31.0517 31.1221C30.476 31.1269 29.905 31.2904 29.4083 31.5646C28.4056 32.1417 27.9553 33.3682 27.9738 34.561C27.9878 35.773 28.4009 36.9802 29.1112 37.9902L29.0787 38.019C28.647 37.5718 28.2988 37.0331 28.0481 36.4463C27.7881 35.8643 27.6257 35.2295 27.5978 34.5754C27.5607 33.9309 27.635 33.2527 27.8996 32.6419C28.1595 32.0263 28.6238 31.4876 29.204 31.175C29.7843 30.8816 30.4203 30.7277 31.0517 30.7421C31.683 30.7566 32.3004 30.8912 32.8854 31.1269C33.4564 31.3674 34.032 31.7089 34.3987 32.2668C34.7701 32.8295 34.7887 33.5894 34.5287 34.181Z" fill="#E2BCAB"/>
<path fill-rule="evenodd" clip-rule="evenodd" d="M39.0051 45.647C37.3199 44.4158 35.8669 42.8719 34.6738 41.001C36.229 43.0643 37.1528 43.829 39.0051 45.647Z" fill="#E2BCAB"/>
<path fill-rule="evenodd" clip-rule="evenodd" d="M53.5115 37.8892C53.5115 40.2507 51.6685 42.1601 49.3938 42.1601C47.1145 42.1601 45.2715 40.2507 45.2715 37.8892C45.2715 35.5325 47.1145 33.623 49.3938 33.623C51.6685 33.623 53.5115 35.5325 53.5115 37.8892Z" fill="#E2BCAB"/>
<path fill-rule="evenodd" clip-rule="evenodd" d="M66.445 37.0669C66.2129 37.0813 65.9807 37.062 65.7579 37.0043C65.7022 36.9899 65.1451 36.8264 65.3448 36.7109C65.3865 36.6869 65.433 36.6965 65.4794 36.7013C65.5258 36.7061 65.5676 36.7109 65.6094 36.7206C65.874 36.7735 66.1247 36.8793 66.4218 36.86C66.5425 36.8504 66.5703 37.0572 66.445 37.0669Z" fill="#E2BCAB"/>
<path fill-rule="evenodd" clip-rule="evenodd" d="M34.5287 34.181L34.4777 34.3012L34.3755 34.2339C34.0691 34.0367 33.6978 33.9357 33.3264 33.9309C32.9596 33.9261 32.5697 34.0175 32.3097 34.282C32.0358 34.5369 32.0219 34.9794 32.124 35.3401C32.2447 35.7056 32.5511 36.0038 32.9179 36.1L32.9086 36.1433C32.5233 36.0567 32.1844 35.7585 32.0405 35.3738C31.9198 34.989 31.9151 34.508 32.2169 34.1858C32.5047 33.8732 32.9318 33.7626 33.3264 33.7577C33.6838 33.7481 34.0459 33.8155 34.3709 33.9886C34.5519 33.4547 34.4916 32.868 34.1806 32.4207C33.851 31.9397 33.3171 31.6367 32.774 31.4251C32.2215 31.2231 31.632 31.1125 31.0517 31.1221C30.476 31.1269 29.905 31.2904 29.4083 31.5646C28.4056 32.1417 27.9553 33.3682 27.9738 34.561C27.9878 35.773 28.4009 36.9802 29.1112 37.9902L29.0787 38.019C28.647 37.5718 28.2988 37.0331 28.0481 36.4463C27.7881 35.8643 27.6257 35.2295 27.5978 34.5754C27.5607 33.9309 27.635 33.2527 27.8996 32.6419C28.1595 32.0263 28.6238 31.4876 29.204 31.175C29.7843 30.8816 30.4203 30.7277 31.0517 30.7421C31.683 30.7566 32.3004 30.8912 32.8854 31.1269C33.4564 31.3674 34.032 31.7089 34.3987 32.2668C34.7701 32.8295 34.7887 33.5894 34.5287 34.181Z" fill="#672448"/>
<path fill-rule="evenodd" clip-rule="evenodd" d="M27.8263 28.8267C27.7103 28.9229 27.5989 29.0239 27.4875 29.1297C27.3807 29.2307 27.2786 29.3365 27.1764 29.4423C26.9907 29.6491 26.819 29.8607 26.6611 30.0772C26.8236 29.8607 27 29.6491 27.1904 29.4423C27.3853 29.2403 27.5896 29.0431 27.8171 28.8555C28.2674 28.4804 28.7641 28.163 29.2887 27.9081C29.3954 27.86 29.5254 27.7878 29.674 27.7205C29.6833 27.7157 29.6879 27.7109 29.6972 27.7061C29.0333 27.9754 28.402 28.3457 27.8263 28.8267ZM34.6737 40.9997C35.8668 42.8707 37.3198 44.4146 39.0049 45.6458C37.1527 43.8278 36.2289 43.0631 34.6737 40.9997Z" fill="#672448"/>
<path fill-rule="evenodd" clip-rule="evenodd" d="M71.2356 23.4264C71.1288 23.8978 70.7528 24.0565 70.3489 24.1575C70.3536 24.1431 70.3675 24.1334 70.3675 24.1238C70.5764 23.3783 70.6182 22.5655 70.5253 21.7335C70.0101 17.4337 65.6278 12.2634 59.486 8.9592C59.8342 9.08906 60.1824 9.21411 60.5259 9.3584C63.9844 10.8061 67.3175 13.0377 69.3694 16.3371C70.4186 18.0205 71.1196 19.9539 71.2635 21.9595C71.296 22.4357 71.3424 22.9599 71.2356 23.4264ZM66.9462 24.4509H66.9137C64.8339 24.3499 62.796 23.8256 60.823 23.1715C58.9893 22.5655 57.1788 21.8681 55.4148 21.0697C54.5095 20.6609 53.6182 20.2136 52.7408 19.7279C53.0704 19.8385 53.3954 19.9443 53.725 20.0501C56.6682 20.9543 62.9074 23.2629 66.858 24.1575H66.8672C67.4104 24.2825 67.9117 24.3787 68.3528 24.4413C67.8839 24.4701 67.415 24.4749 66.9462 24.4509ZM41.3254 2.39893C38.2987 3.94281 36.2189 6.99689 35.3369 9.42573C35.2905 9.42092 35.2951 9.42092 35.2487 9.41611C35.2394 9.38726 35.2348 9.36321 35.2255 9.33435C35.7686 7.36723 36.8549 5.58768 38.2801 4.17367C41.1212 1.36968 45.1275 0.200949 48.9945 0.441428C49.8115 0.489524 50.8096 0.528001 51.4549 1.11958C51.5895 1.24463 51.6824 1.38411 51.7566 1.52839C50.285 0.152853 44.6075 0.720384 41.3254 2.39893ZM50.5357 26.4853C50.5775 26.418 50.61 26.341 50.6425 26.2641C50.5589 26.6873 50.4057 27.0913 50.169 27.4328C49.5005 28.3947 48.3028 28.2697 47.365 27.9955C45.4756 27.4473 43.7255 26.3555 42.226 24.9799C40.4806 23.3735 39.1064 21.3824 38.0434 19.194C38.7768 20.2233 39.6264 21.2573 40.5688 22.2433C44.8025 26.697 49.273 28.5919 50.5357 26.4853ZM71.6024 22.3347C71.5931 21.8248 71.5466 21.3198 71.4724 20.8196C71.1567 18.7948 70.3118 16.8758 69.1327 15.2357C66.7883 11.9844 63.2231 9.85379 59.5789 8.53115C58.6783 8.19929 57.7545 7.92995 56.826 7.7039C54.1196 6.59289 51.5106 6.02055 49.2405 5.97726C49.4309 5.85702 49.6258 5.73678 49.8069 5.60211C50.7028 4.94801 51.5849 4.16405 52.0445 3.11075C52.4066 2.28831 52.4112 1.29753 51.687 0.691527C50.9535 0.0855187 49.8626 0.0614708 48.9713 0.0181845C46.8173 -0.0828168 44.64 0.234616 42.6206 1.0282C39.1807 2.37969 36.2979 5.20773 35.0769 8.81492C34.5524 7.01132 34.0046 5.81854 33.6703 5.8955C33.3129 5.97726 33.299 7.46823 33.5868 9.52674C32.027 7.62214 30.4532 6.43417 29.9844 6.84299C29.5851 7.18928 30.1144 8.58887 31.1914 10.2145C31.2146 10.2722 31.2471 10.3396 31.2796 10.4021C26.122 12.4125 22.7471 17.4048 22.7471 29.5106C22.7517 39.476 29.3577 45.1321 39.0136 45.6563L39.0043 45.6467C37.3192 44.4155 35.8661 42.8716 34.6731 41.0007C34.6034 40.9093 34.5338 40.8179 34.4642 40.7217C31.8738 41.4143 28.977 40.6784 27.0922 38.5959C25.8156 37.177 25.24 35.4023 25.3514 33.6757C25.356 33.5554 25.3653 33.44 25.3792 33.3198C25.3885 33.2043 25.4071 33.0889 25.4257 32.9687C25.4814 32.6224 25.5649 32.2809 25.681 31.9442C25.6903 31.9154 25.7042 31.8817 25.7135 31.848C25.7692 31.6941 25.8249 31.5402 25.8945 31.3911C25.941 31.2853 25.9874 31.1795 26.0431 31.0785C26.0849 30.9919 26.1266 30.9102 26.1777 30.8236C26.1824 30.8092 26.1916 30.7995 26.1963 30.7899C26.2148 30.7514 26.2381 30.7178 26.2566 30.6841C26.2566 30.6841 26.2566 30.6793 26.2613 30.6745C26.2659 30.6649 26.2706 30.6552 26.2752 30.6504C26.2798 30.636 26.2938 30.6168 26.3077 30.5975C26.3077 30.5879 26.3123 30.5783 26.3263 30.5735V30.5687C26.3263 30.5687 26.3263 30.5639 26.3309 30.5591C26.3402 30.5446 26.3495 30.535 26.3588 30.5206C26.5816 30.1406 26.8555 29.7799 27.1758 29.4432C27.2733 29.3374 27.3754 29.2316 27.4868 29.1306C27.5936 29.0248 27.7097 28.9238 27.8257 28.8276C28.4014 28.3466 29.0327 27.9763 29.6966 27.707H29.7012C29.7058 27.7022 29.7151 27.7022 29.7198 27.6974C30.0911 27.5194 30.5461 27.3222 30.8664 27.3366H30.871H30.8803C30.9082 27.3366 30.936 27.3366 30.9639 27.3414C31.2471 27.3943 31.5906 27.7839 31.8227 27.9523C32.1802 28.212 32.533 28.4717 32.8812 28.741C33.4104 29.1498 33.9303 29.5635 34.4456 29.9963C34.9191 30.3955 35.3555 30.713 36.0054 30.535C36.6739 30.3474 37.1892 29.7126 37.2217 28.9911C37.4259 24.6048 36.8735 18.511 36.8735 17.5684C37.3795 18.867 37.9737 20.1126 38.6794 21.2862C39.8538 23.2341 41.3254 24.9607 43.0663 26.2833C43.9066 26.923 44.8118 27.4617 45.7588 27.8849C46.678 28.2937 47.7179 28.6977 48.7252 28.5871C49.714 28.4813 50.4475 27.731 50.7957 26.7162C51.1856 25.5908 51.0974 24.3451 50.7864 23.21C50.4429 21.9451 49.844 20.7908 49.2498 19.6557C48.9806 19.1411 48.7113 18.6265 48.4467 18.1118C49.1662 18.4197 49.9044 18.7227 50.6703 19.0064C52.648 20.281 54.7834 21.315 56.9467 22.1952C58.8454 22.9647 60.7812 23.6765 62.7588 24.1912C64.1608 24.5567 65.5999 24.8164 67.0483 24.8501H67.0529C67.74 24.8693 68.4317 24.8405 69.1187 24.7491C69.9543 24.6336 71.0731 24.5423 71.4445 23.6188C71.607 23.2148 71.607 22.7627 71.6024 22.3347Z" fill="#672448"/>
<path fill-rule="evenodd" clip-rule="evenodd" d="M49.3938 33.623C47.1145 33.623 45.2715 35.5325 45.2715 37.8892C45.2715 40.2507 47.1145 42.1601 49.3938 42.1601C51.6685 42.1601 53.5115 40.2507 53.5115 37.8892C53.5115 35.5325 51.6685 33.623 49.3938 33.623ZM66.4217 36.8599C66.1246 36.8791 65.8739 36.7733 65.6093 36.7204C65.5675 36.7108 65.5257 36.706 65.4793 36.7012C65.4329 36.6964 65.3865 36.6868 65.3447 36.7108C65.1451 36.8262 65.7021 36.9898 65.7578 37.0042C65.9807 37.0619 66.2128 37.0811 66.4449 37.0667C66.5702 37.0571 66.5424 36.8503 66.4217 36.8599Z" fill="#E2BCAB"/>
<path fill-rule="evenodd" clip-rule="evenodd" d="M66.4449 37.0674C66.2127 37.0818 65.9806 37.0626 65.7578 37.0049C65.7021 36.9904 65.145 36.8269 65.3446 36.7115C65.3864 36.6874 65.4328 36.6971 65.4793 36.7019C65.5257 36.7067 65.5675 36.7115 65.6093 36.7211C65.8739 36.774 66.1245 36.8798 66.4217 36.8606C66.5423 36.851 66.5702 37.0578 66.4449 37.0674ZM49.3938 42.1607C47.1144 42.1607 45.2715 40.2513 45.2715 37.8898C45.2715 35.5331 47.1144 33.6237 49.3938 33.6237C51.6685 33.6237 53.5115 35.5331 53.5115 37.8898C53.5115 40.2513 51.6685 42.1607 49.3938 42.1607ZM41.2002 47.4128C41.1352 47.3599 41.0702 47.3118 41.0098 47.2589C41.1352 47.3551 41.2652 47.4561 41.3998 47.5619C41.3302 47.509 41.2652 47.4609 41.2002 47.4128ZM39.9932 46.3162L40.1092 46.3643C40.165 46.4076 40.2299 46.4557 40.2949 46.5086C40.1928 46.4461 40.0907 46.3836 39.9932 46.3162ZM68.896 32.4117C68.5664 32.0943 68.1532 31.8827 67.7215 31.772C67.7401 31.3969 67.754 31.0217 67.754 30.6418C67.754 28.6314 67.5079 26.6883 67.0484 24.851C65.6 24.8174 64.1609 24.5577 62.7589 24.1921C60.7813 23.6775 58.8455 22.9657 56.9468 22.1962C54.7835 21.316 52.648 20.2819 50.6704 19.0074C49.9044 18.7236 49.1663 18.4206 48.4468 18.1128C48.7114 18.6274 48.9806 19.1421 49.2499 19.6567C49.8441 20.7918 50.4429 21.9461 50.7865 23.211C51.0975 24.346 51.1857 25.5917 50.7958 26.7172C50.4476 27.732 49.7141 28.4823 48.7253 28.5881C47.7179 28.6987 46.6781 28.2947 45.7589 27.8859C44.8119 27.4627 43.9066 26.924 43.0664 26.2843C41.3255 24.9617 39.8539 23.235 38.6794 21.2871C37.9738 20.1136 37.3796 18.8679 36.8736 17.5693C36.8736 18.512 37.426 24.6058 37.2218 28.9921C37.1893 29.7135 36.674 30.3484 36.0055 30.536C35.3556 30.7139 34.9192 30.3965 34.4457 29.9973C33.9304 29.5644 33.4104 29.1508 32.8812 28.742C32.5331 28.4727 32.1802 28.2129 31.8228 27.9532C31.5907 27.7849 31.2471 27.3953 30.964 27.3424C30.9361 27.3376 30.9083 27.3376 30.8804 27.3376H30.8711H30.8665C30.4765 27.4242 30.0959 27.5444 29.7198 27.6983C29.7152 27.7031 29.7059 27.7031 29.7013 27.7079H29.6966C29.6873 27.7128 29.6827 27.7176 29.6734 27.7224C29.5249 27.7897 29.3949 27.8618 29.2881 27.9099C28.7635 28.1649 28.2668 28.4823 27.8165 28.8574C27.589 29.045 27.3848 29.2422 27.1898 29.4442C26.9995 29.651 26.8231 29.8626 26.6606 30.0791C26.6513 30.0935 26.6374 30.1079 26.6281 30.1224C26.6234 30.1272 26.6188 30.132 26.6188 30.1368C26.5909 30.1753 26.5677 30.2089 26.5445 30.2474C26.4795 30.3388 26.4192 30.4302 26.3588 30.5216C26.3495 30.536 26.3403 30.5456 26.331 30.56C26.3263 30.5648 26.3263 30.5696 26.3263 30.5696V30.5745C26.3171 30.5841 26.3124 30.5889 26.3078 30.5985C26.2938 30.6177 26.2799 30.637 26.2753 30.6514C26.2706 30.6562 26.266 30.6658 26.2613 30.6755C26.2567 30.6803 26.2567 30.6851 26.2567 30.6851C26.2381 30.7187 26.2149 30.7524 26.1964 30.7909C26.1917 30.8005 26.1824 30.8101 26.1778 30.8246C26.1267 30.9111 26.0849 30.9929 26.0432 31.0795C25.9875 31.1805 25.941 31.2863 25.8946 31.3921C25.825 31.5412 25.7693 31.6951 25.7136 31.849C25.7043 31.8827 25.6903 31.9163 25.6811 31.9452C25.565 32.2819 25.4814 32.6233 25.4257 32.9696C25.4072 33.0899 25.3886 33.2053 25.3793 33.3207C25.3654 33.441 25.3561 33.5564 25.3515 33.6766C25.2586 35.4033 25.8343 37.1636 27.1062 38.5728C28.991 40.6553 31.8831 41.3864 34.4782 40.6986C34.5432 40.7996 34.6035 40.9006 34.6731 41.0016C36.2283 43.065 37.1521 43.8297 39.0044 45.6477L39.0137 45.6573C39.0462 45.6814 39.0833 45.7102 39.1204 45.7343C39.139 45.7487 39.1576 45.7583 39.1761 45.7727C39.1901 45.7824 39.1994 45.792 39.2133 45.7968L39.204 45.9988L39.074 49.4809L39.0601 49.8657L39.023 50.8565L38.9997 51.5346L38.9208 53.6076C38.9301 53.6172 38.9255 53.6268 38.9208 53.6364V53.6653L38.8883 54.507C39.7518 55.315 41.2605 56.0701 42.7646 56.5462C42.941 56.5991 43.1174 56.652 43.2892 56.7001C43.3449 56.7146 43.396 56.729 43.447 56.7386C43.5213 56.7627 43.5956 56.7819 43.6652 56.8011C43.7116 56.8107 43.7581 56.8204 43.8045 56.83C43.8138 56.8348 43.8231 56.8348 43.8323 56.8396C43.9577 56.8637 44.0784 56.8877 44.1991 56.9117C45.6707 57.1955 46.9055 57.1041 47.1841 56.3923C47.2026 56.3586 47.2166 56.3202 47.2212 56.2769C47.2398 56.2095 47.2491 56.1374 47.2491 56.0556V49.0288C48.8321 49.3078 50.5172 49.4473 52.2906 49.4473C55.5866 49.4473 59.5975 48.7595 62.2436 45.8786C63.7198 44.2722 64.9872 42.2858 65.9296 40.0109C66.3242 39.0682 66.6584 38.0774 66.9323 37.0482C66.9509 37.0482 66.9555 37.0578 66.9694 37.0578C68.3575 37.077 69.4902 35.788 69.6016 34.3692C69.662 33.643 69.4066 32.9023 68.896 32.4117Z" fill="#E2BCAB"/>
<path fill-rule="evenodd" clip-rule="evenodd" d="M40.2939 46.5078C40.1918 46.4453 40.0897 46.3828 39.9922 46.3154L40.1082 46.3635C40.164 46.4068 40.2289 46.4549 40.2939 46.5078Z" fill="#E2BCAB"/>
<path fill-rule="evenodd" clip-rule="evenodd" d="M34.5294 34.1849L34.4737 34.3004L34.3716 34.2378C34.0699 34.0406 33.6938 33.9348 33.3225 33.9348C32.9557 33.9252 32.5658 34.0166 32.3058 34.2811C32.0365 34.5408 32.018 34.9833 32.1201 35.344C32.2408 35.7048 32.5472 36.0078 32.9139 36.0991L32.9047 36.1424C32.5193 36.0607 32.1851 35.7625 32.0412 35.3729C31.9158 34.9929 31.9112 34.5072 32.2176 34.1897C32.5054 33.8771 32.9279 33.7665 33.3225 33.7569C33.6799 33.7473 34.042 33.8194 34.3716 33.9877C34.5434 33.4539 34.4877 32.8671 34.1766 32.4246C33.8517 31.9437 33.3132 31.6358 32.77 31.429C32.2222 31.227 31.6327 31.1116 31.0477 31.126C30.4721 31.1308 29.9011 31.2944 29.409 31.5637C28.4016 32.1409 27.9513 33.3673 27.9699 34.5649C27.9838 35.7721 28.4016 36.9841 29.1119 37.9941L29.0748 38.023C28.6477 37.5757 28.2949 37.037 28.0442 36.4502C27.7842 35.8683 27.6217 35.2286 27.5939 34.5793C27.5568 33.93 27.631 33.2567 27.9003 32.6411C28.1556 32.0254 28.6198 31.4916 29.2001 31.1789C29.7804 30.8807 30.4164 30.7316 31.0524 30.7461C31.6791 30.7605 32.2965 30.8952 32.8814 31.126C33.4571 31.3665 34.0281 31.708 34.3948 32.2707C34.7662 32.8334 34.7894 33.5933 34.5294 34.1849Z" fill="#672448"/>
<path fill-rule="evenodd" clip-rule="evenodd" d="M66.445 37.0669C66.2129 37.0813 65.9807 37.062 65.7579 37.0043C65.7022 36.9899 65.1451 36.8264 65.3448 36.7109C65.3865 36.6869 65.433 36.6965 65.4794 36.7013C65.5258 36.7061 65.5676 36.7109 65.6094 36.7206C65.874 36.7735 66.1247 36.8793 66.4218 36.86C66.5425 36.8504 66.5703 37.0572 66.445 37.0669Z" fill="#672448"/>
<path fill-rule="evenodd" clip-rule="evenodd" d="M53.5115 37.8892C53.5115 40.2507 51.6685 42.1601 49.3938 42.1601C47.1145 42.1601 45.2715 40.2507 45.2715 37.8892C45.2715 35.5325 47.1145 33.623 49.3938 33.623C51.6685 33.623 53.5115 35.5325 53.5115 37.8892Z" fill="#C57450"/>
<path fill-rule="evenodd" clip-rule="evenodd" d="M47.2503 49.048V51.5923C47.241 51.5875 47.2317 51.5875 47.2225 51.5827C47.1482 51.549 47.06 51.5105 46.9625 51.4576H46.9579C46.7304 51.3374 46.4518 51.1738 46.1362 50.9718C46.0155 50.8949 45.8948 50.8131 45.7648 50.7314C45.6812 50.6736 45.593 50.6159 45.5048 50.5582C45.3748 50.4716 45.2449 50.3803 45.1102 50.2889C45.0406 50.236 44.9663 50.1879 44.8967 50.1398C44.6553 49.9714 44.4092 49.7935 44.1586 49.6155C44.0518 49.5338 43.9404 49.4568 43.8336 49.3799C43.3972 49.0624 42.9562 48.7354 42.5338 48.418C42.4734 48.3747 42.4177 48.3314 42.362 48.2881C42.2645 48.2159 42.1717 48.1438 42.0788 48.0765C41.9906 48.0091 41.9071 47.9466 41.8235 47.8841C41.6796 47.7735 41.5357 47.6677 41.4011 47.5618C41.2664 47.456 41.1364 47.355 41.0111 47.2588C40.9415 47.2107 40.8811 47.1626 40.8161 47.1146C40.6444 46.9799 40.4865 46.8596 40.3426 46.749C40.3426 46.7442 40.338 46.7442 40.338 46.7442C40.3333 46.7394 40.3287 46.7394 40.324 46.7346C39.8784 46.3883 39.6045 46.1719 39.6045 46.1719L39.9944 46.3162L40.1105 46.3643L47.1575 49.0143L47.2503 49.048Z" fill="#E2BCAB"/>
<path fill-rule="evenodd" clip-rule="evenodd" d="M54.2592 23.3837C54.1756 23.4776 54.0549 23.4635 53.9574 23.3978C53.9109 23.3649 53.8227 23.3226 53.7577 23.3085C53.6648 23.285 53.6045 23.2803 53.5023 23.285C53.4326 23.2944 53.3491 23.3132 53.2655 23.3508C53.2608 23.3555 53.2283 23.3696 53.2283 23.3696C53.2051 23.3837 53.1865 23.3978 53.168 23.4119C53.1262 23.44 53.1169 23.4447 53.089 23.4729C52.8383 23.7266 52.8243 24.1447 53.024 24.4313C53.0937 24.5299 53.0519 24.6756 52.959 24.7366C52.8568 24.8024 52.7315 24.7648 52.6618 24.6662C52.3507 24.2246 52.3971 23.534 52.7918 23.1582C53.1958 22.7729 53.8041 22.7448 54.2453 23.0689C54.3428 23.1394 54.3288 23.3038 54.2592 23.3837Z" fill="#672448"/>
<path fill-rule="evenodd" clip-rule="evenodd" d="M56.5091 35.3445C55.7609 35.4377 55.0039 34.1192 54.8212 32.3953C54.6342 30.6714 55.0909 29.1992 55.8348 29.1013C56.5831 29.0081 57.34 30.3267 57.5227 32.0505C57.7098 33.7744 57.253 35.2466 56.5091 35.3445Z" fill="#672448"/>
<path fill-rule="evenodd" clip-rule="evenodd" d="M55.7073 27.8935C55.7117 28.0357 55.6254 28.1357 55.5177 28.1515C54.9573 28.2199 54.4357 28.7201 54.246 29.3835C54.2115 29.5098 54.1253 29.6046 54.0089 29.573C53.9141 29.5467 53.8236 29.3992 53.8581 29.2782C54.1124 28.3884 54.7504 27.7514 55.5047 27.6566C55.6125 27.6408 55.7073 27.7672 55.7073 27.8935Z" fill="#672448"/>
<path fill-rule="evenodd" clip-rule="evenodd" d="M65.9211 39.4338C64.9803 41.6361 63.7151 43.5591 62.2414 45.1096C61.7919 45.2912 61.3099 45.4122 60.8001 45.4402C57.4541 45.6497 54.4 42.6791 54.3166 41.259C54.3119 41.1426 54.3212 41.0402 54.349 40.9424C54.6688 39.8529 57.2223 39.9134 60.2996 39.7225C63.0895 39.5502 65.2352 38.8332 65.9211 39.4338Z" fill="#672448"/>
</svg>
