<svg width="1295" height="1653" viewBox="0 0 1295 1653" fill="none" xmlns="http://www.w3.org/2000/svg">
<path d="M220.139 186.304H1286.28C1290.68 186.304 1294.24 189.77 1294.24 194.045V1615.84C1294.24 1620.11 1290.68 1623.58 1286.28 1623.58H220.139C215.747 1623.58 212.187 1620.11 212.187 1615.84V194.045C212.187 189.77 215.747 186.304 220.139 186.304Z" fill="#AB5834"/>
<path d="M269.442 247.201H1238.57V1541.01H269.442V247.201Z" fill="#EECCDC"/>
<path d="M269.442 247.201H1238.57V1541.01H269.442V247.201Z" fill="white"/>
<path d="M367.522 395.832H1140.49V416.475H367.522V395.832Z" fill="#C5D3D5" fill-opacity="0.29"/>
<path d="M367.522 953.194H1140.49V973.837H367.522V953.194Z" fill="#C5D3D5" fill-opacity="0.29"/>
<path d="M367.522 535.172H1140.49V555.815H367.522V535.172Z" fill="#C5D3D5" fill-opacity="0.29"/>
<path d="M367.522 1092.54H1140.49V1113.18H367.522V1092.54Z" fill="#C5D3D5" fill-opacity="0.29"/>
<path d="M367.522 674.513H1140.49V695.156H367.522V674.513Z" fill="#C5D3D5" fill-opacity="0.29"/>
<path d="M367.522 1231.88H1140.49V1252.52H367.522V1231.88Z" fill="#C5D3D5" fill-opacity="0.29"/>
<path d="M367.522 813.854H1140.49V834.497H367.522V813.854Z" fill="#C5D3D5" fill-opacity="0.29"/>
<path d="M367.522 1371.22H1140.49V1391.86H367.522V1371.22Z" fill="#C5D3D5" fill-opacity="0.29"/>
<path d="M754.27 186.304C701.713 186.304 659.107 144.598 659.107 93.152C659.107 41.7056 701.713 0 754.27 0C806.828 0 849.434 41.7056 849.434 93.152C849.434 144.598 806.828 186.304 754.27 186.304Z" fill="#F0DD34"/>
<path fill-rule="evenodd" clip-rule="evenodd" d="M940.621 154.308H567.921C538.641 154.308 514.905 177.413 514.905 205.915V296.745H993.637V205.915C993.637 177.413 969.901 154.308 940.621 154.308Z" fill="#F0DD34"/>
<path fill-rule="evenodd" clip-rule="evenodd" d="M360.113 225.321L237.956 442.192L292.79 570.609L389.918 470.945L360.113 225.321Z" fill="#DAA47D"/>
<path fill-rule="evenodd" clip-rule="evenodd" d="M388.817 468.94L343.175 512.124L315.079 454.988L263.347 497.019L236.306 440.082L10.1148 1572.83C4.52794 1600.81 23.2988 1627.9 52.0405 1633.34L101.935 1642.78C130.677 1648.22 158.506 1629.94 164.092 1601.97C164.097 1601.94 164.101 1601.92 164.105 1601.9L388.817 468.94Z" fill="#0F1440"/>
<path d="M45.5915 1397.4L199.635 1426.55L171.007 1569.92L16.9636 1540.77L45.5915 1397.4Z" fill="#7E3B1F"/>
<path fill-rule="evenodd" clip-rule="evenodd" d="M359.991 225.794L330.287 278.53L367.236 285.521L359.991 225.794Z" fill="#323031"/>
<ellipse cx="754.675" cy="93.0198" rx="43.2078" ry="41.5442" fill="white"/>
</svg>
