<svg width="274" height="293" viewBox="0 0 274 293" fill="none" xmlns="http://www.w3.org/2000/svg">
<path d="M85.2952 197.108L119.338 250.67L100.71 263.642C98.4962 265.225 95.5343 264.63 94.1029 262.316L65.3199 217.029C63.843 214.705 64.4633 211.616 66.7038 210.137L85.2952 197.108Z" fill="url(#paint0_linear)"/>
<path d="M209.598 109.478L244.577 164.514L132.647 242.464L97.6678 187.428L108.745 179.714L209.598 109.478Z" fill="#FF8228"/>
<path d="M220.242 126.167L209.62 109.454L97.7015 187.396L108.324 204.109L220.242 126.167Z" fill="#FFC53D"/>
<path d="M244.582 164.501L233.96 147.789L122.041 225.731L132.663 242.443L244.582 164.501Z" fill="#FFC53D"/>
<path d="M266.732 113.435L244.623 164.523L223.382 151.556C216.743 147.553 212.386 140.448 211.707 132.499L209.643 109.488L212.693 109.408L255.047 108.122L263.156 107.871C265.978 107.745 267.842 110.74 266.732 113.435Z" fill="#FFB68F"/>
<path d="M273.362 106.855C274.188 105.339 272.99 103.517 271.326 103.776C264.352 104.749 250.613 107.775 256.206 116.513C262.088 125.704 269.928 113.335 273.362 106.855Z" fill="black"/>
<path d="M104.057 184.41L137.739 237.405C138.738 239.039 138.299 241.226 136.746 242.348L119.286 254.467C117.733 255.589 115.591 255.159 114.547 253.515L107.27 242.066L80.8644 200.52C79.8197 198.876 80.2683 196.643 81.8569 195.577L99.1713 183.478L99.3367 183.363C100.952 182.402 103.002 182.814 104.057 184.41Z" fill="#C5D3DD"/>
<g clip-path="url(#clip0)">
<path d="M141.522 74.9807C141.522 74.9807 147.091 98.1407 144.413 102.039C141.709 105.907 0.000530571 116.088 0.000530571 116.088L141.522 74.9807Z" fill="#1F49CC"/>
<path d="M138.617 56.5794L176.03 74.3938L-0.000350403 116.089L138.617 56.5794Z" fill="#5079E2"/>
<path d="M-8.86916e-05 116.088L134.989 45.4684L138.617 56.5788L-8.86916e-05 116.088Z" fill="#1F49CC"/>
<path d="M-0.000118832 116.089L145.642 14.7283L134.989 45.4685L-0.000118832 116.089Z" fill="#5079E2"/>
</g>
<defs>
<linearGradient id="paint0_linear" x1="85.8834" y1="262.171" x2="98.4136" y2="199.767" gradientUnits="userSpaceOnUse">
<stop offset="0.3392" stop-color="#FF3D2F"/>
<stop offset="0.9225" stop-color="#FF4535"/>
</linearGradient>
<clipPath id="clip0">
<rect width="176.36" height="84.4837" fill="white" transform="matrix(-0.752801 0.658248 0.658248 0.752801 132.764 0)"/>
</clipPath>
</defs>
</svg>
