<svg width="1424" height="1834" viewBox="0 0 1424 1834" fill="none" xmlns="http://www.w3.org/2000/svg">
<path d="M244.667 208.714L1414.5 209.5C1416.5 209.5 1422.5 212 1423.3 218.286C1423.3 834.338 1423.93 1178.75 1423.93 1794.8C1423.93 1799.55 1420.02 1803.39 1415.2 1803.39H244.667C239.845 1803.39 235.937 1799.55 235.937 1794.8V217.303C235.937 212.559 239.845 208.714 244.667 208.714Z" fill="#4749EE"/>
<path d="M295.828 274.271H1359.84V1709.77H295.828V274.271Z" fill="#EECCDC"/>
<path d="M295.828 274.271H1359.84V1709.77H295.828V274.271Z" fill="#91B3FA"/>
<path d="M403.501 439.182H1252.15V462.085H403.501V439.182Z" fill="white"/>
<path d="M403.501 1057.58H1252.15V1080.48H403.501V1057.58Z" fill="white"/>
<path d="M403.501 593.779H1252.15V616.683H403.501V593.779Z" fill="white"/>
<path d="M403.501 1212.18H1252.15V1235.09H403.501V1212.18Z" fill="white"/>
<path d="M403.501 748.383H1252.15V771.287H403.501V748.383Z" fill="white"/>
<path d="M403.501 1366.78H1252.15V1389.69H403.501V1366.78Z" fill="white"/>
<path d="M403.501 902.979H1252.15V925.883H403.501V902.979Z" fill="white"/>
<path d="M403.501 1521.38H1252.15V1544.29H403.501V1521.38Z" fill="white"/>
<path d="M828.125 206.707C770.422 206.707 723.644 160.434 723.644 103.353C723.644 46.2729 770.422 0 828.125 0C885.828 0 932.605 46.2729 932.605 103.353C932.605 160.434 885.828 206.707 828.125 206.707Z" fill="#91B3FA"/>
<path fill-rule="evenodd" clip-rule="evenodd" d="M1032.4 168H623.206C591.059 168 564.999 193.636 564.999 225.26V326.036H1090.6V225.26C1090.6 193.636 1064.54 168 1032.4 168Z" fill="#4547EC"/>
<path fill-rule="evenodd" clip-rule="evenodd" d="M395.375 249.999L261.258 490.619L321.461 633.101L428.098 522.522L395.375 249.999Z" fill="white"/>
<path fill-rule="evenodd" clip-rule="evenodd" d="M426.888 520.302L376.778 568.214L345.93 504.821L289.133 551.455L259.445 488.283L11.1074 1745.08C4.97354 1776.12 25.5822 1806.18 57.1381 1812.22L111.918 1822.69C143.473 1828.72 174.027 1808.45 180.161 1777.41C180.166 1777.38 180.17 1777.36 180.175 1777.34L426.888 520.302Z" fill="#4749EE"/>
<path d="M50.0658 1550.44L219.191 1582.78L187.761 1741.85L18.635 1709.51L50.0658 1550.44Z" fill="#232462"/>
<path fill-rule="evenodd" clip-rule="evenodd" d="M395.245 250.523L362.632 309.034L403.199 316.792L395.245 250.523Z" fill="#323031"/>
<ellipse cx="828.567" cy="103.207" rx="47.4382" ry="46.0939" fill="white"/>
</svg>
