<svg width="165" height="180" viewBox="0 0 165 180" fill="none" xmlns="http://www.w3.org/2000/svg">
<path d="M1.19559 93.4645C1.9323 79.0378 -3.47353 68.8148 4.05282 57.8715C8.71199 51.1022 26.6717 42.5073 31.3309 35.738C32.8939 33.4684 34.4868 31.1594 36.4779 29.4917C41.9235 24.9229 49.0616 25.9887 55.6024 26.3932C60.4308 26.6893 65.309 26.5215 70.0478 25.3177C82.074 22.2586 92.368 12.825 103.697 6.88464C108.894 4.15127 114.33 2.15797 119.885 0.93437C125.002 -0.190557 130.388 -0.624739 135.296 1.51657C140.204 3.65788 144.535 8.87793 145.162 15.3512C145.51 18.9727 144.724 22.604 144.525 26.2452C144.336 29.8864 144.943 34.0013 147.312 36.113C149.234 37.8201 151.792 37.7807 153.953 38.9352C159.448 41.8659 160.553 51.0528 159.836 58.4931C159.12 65.9334 157.477 73.9658 160.304 80.5674C161.091 82.3929 162.186 84.0112 162.873 85.896C163.709 88.1557 163.918 90.6818 164.038 93.1685C164.705 107.033 162.684 121.094 158.204 133.794C157.457 135.906 156.621 138.037 155.267 139.616C153.604 141.58 151.334 142.498 149.453 144.136C147.342 145.981 145.799 148.665 143.738 150.589C139.896 154.161 134.818 154.635 130.05 154.98C116.749 155.928 103.229 156.855 90.2575 153.017C75.593 148.655 61.7151 138.245 46.6524 139.231C38.7378 139.744 30.5942 143.396 23.1076 140.149C19.4042 138.541 16.1985 135.205 14.1776 131.002C12.0371 126.551 12.1168 121.015 9.75732 116.723C8.18435 113.871 5.61583 112.322 3.99309 109.549C1.42457 105.158 0.926796 98.7241 1.19559 93.4645Z" fill="#DDF1F4"/>
<path opacity="0.2" d="M150.703 117.789C151.37 114.128 151.806 110.407 151.994 106.66C145.71 105.545 139.297 105.005 133.303 102.844C133.09 102.056 133.893 101.378 134.62 101.018C137.382 99.6379 140.648 99.3292 143.615 100.169C144.667 100.47 145.667 100.898 146.719 101.19C148.471 101.687 150.284 101.79 152.105 101.644C152.097 100.452 152.063 99.2692 152.003 98.086C151.926 96.5255 151.797 94.948 151.43 93.4647C148.548 93.5161 145.65 93.559 142.811 93.0531C138.57 92.3072 134.389 90.3609 130.14 91.0297C127.54 91.4413 125.189 92.8045 122.667 93.5676C117.545 95.1109 112.047 94.082 106.695 94.202C104.686 94.2449 102.599 94.485 100.889 95.5396C99.1793 96.5941 97.9481 98.6604 98.4098 100.615C98.8886 102.604 100.847 103.839 102.702 104.705C106.079 106.283 109.679 107.389 113.364 107.972C118.229 108.743 123.197 108.615 128.088 109.155C129.259 109.283 130.482 109.472 131.422 110.192C132.183 110.784 132.671 111.658 133.269 112.413C135.415 115.105 138.998 116.125 142.367 116.768C145.12 117.291 147.907 117.66 150.703 117.789Z" fill="white"/>
<path opacity="0.5" d="M79.7622 62.1321C80.2759 59.9071 82.2717 58.2446 84.6633 58.2446C85.1012 58.2446 85.5307 58.3034 85.9349 58.4041C87.1138 55.8852 89.6739 54.1472 92.6465 54.1472C93.4128 54.1472 94.1539 54.2648 94.8528 54.4831C96.4528 51.8466 99.3581 50.0834 102.676 50.0834C106.626 50.0834 109.986 52.5771 111.257 56.0784C112.158 55.5746 113.194 55.2891 114.306 55.2891C117.767 55.2891 120.571 58.0851 120.571 61.536C120.571 61.7375 120.562 61.939 120.537 62.1405H79.7622V62.1321Z" fill="white"/>
<path opacity="0.5" d="M65.8506 59.3581C65.6973 58.6759 65.1111 58.162 64.3987 58.162C64.2724 58.162 64.1462 58.1806 64.0199 58.2087C63.6682 57.4331 62.9197 56.9004 62.0359 56.9004C61.8105 56.9004 61.5941 56.9378 61.3866 57.0032C60.9177 56.1902 60.061 55.6482 59.078 55.6482C57.9147 55.6482 56.9227 56.4145 56.544 57.4891C56.2734 57.3396 55.9668 57.2462 55.6422 57.2462C54.6231 57.2462 53.7935 58.1059 53.7935 59.1618C53.7935 59.2273 53.7935 59.2833 53.8025 59.3487H65.8506V59.3581Z" fill="white"/>
<path opacity="0.5" d="M132.628 38.0181C132.419 37.1609 131.599 36.524 130.623 36.524C130.44 36.524 130.266 36.5485 130.1 36.5893C129.612 35.6178 128.566 34.9483 127.354 34.9483C127.04 34.9483 126.735 34.9891 126.456 35.0789C125.802 34.0666 124.616 33.3889 123.256 33.3889C121.644 33.3889 120.266 34.3523 119.743 35.6913C119.377 35.4953 118.95 35.3892 118.497 35.3892C117.084 35.3892 115.934 36.4669 115.934 37.7895C115.934 37.8712 115.934 37.9446 115.942 38.0263H132.628V38.0181Z" fill="white"/>
<path opacity="0.5" d="M148.091 63.6568C146.871 62.713 145.294 62.1405 143.572 62.1405C141.048 62.1405 138.831 63.3628 137.621 65.1885C137.092 65.0415 136.529 64.9564 135.941 64.9564C133.681 64.9564 131.729 66.1633 130.834 67.9039C130.527 67.8343 130.203 67.7956 129.87 67.7956C128.054 67.7956 126.528 68.9482 126.136 70.4877H148.227C148.236 70.449 148.236 70.4026 148.244 70.364C148.466 68.2133 148.466 65.8538 148.091 63.6568Z" fill="white"/>
<path opacity="0.5" d="M20.4043 68.6328H45.446C45.0542 67.1006 43.5217 65.9651 41.6932 65.9651C41.3536 65.9651 41.0315 66.004 40.718 66.074C39.8125 64.3474 37.8534 63.1496 35.5808 63.1496C34.9887 63.1496 34.4228 63.2274 33.8916 63.3752C33.2908 62.4885 32.4463 61.7419 31.4449 61.213C27.1262 63.7641 22.7552 66.3229 20.4043 68.6328Z" fill="white"/>
<path opacity="0.2" d="M148.395 62.2475C147.604 60.1091 146.362 58.3625 144.55 57.4168C142.756 56.4882 140.638 56.5223 139.047 55.1506C138.078 54.3071 137.457 53.0718 137.108 51.6746C129.674 51.666 122.223 51.9898 115.019 50.2858C114.415 50.141 113.794 49.9706 113.335 49.5617C112.34 48.6671 112.552 46.9546 113.437 45.9578C114.33 44.961 115.674 44.535 116.975 44.2283C123.533 42.7033 130.304 43.3934 137.066 43.8449C137.27 42.0387 137.448 40.2411 137.27 38.4434C137.21 37.8556 137.108 37.2762 136.98 36.7139C130.346 36.9525 123.703 36.0153 117.06 36.1942C116.303 36.2112 115.487 36.2709 114.891 36.748C114.364 37.1825 114.126 37.8641 113.76 38.4434C112.655 40.1814 110.469 40.8119 108.478 41.3146C101.257 43.1207 94.0358 44.9269 86.8145 46.7246C84.8497 47.2187 82.7914 47.7555 81.3369 49.1783C78.8193 51.6405 79.4147 56.4712 82.4512 58.2433C84.2288 59.2827 86.4063 59.2912 88.4731 59.2656C91.6797 59.2315 94.8778 59.1975 98.0844 59.1634C100.279 59.1378 102.533 59.1293 104.557 59.9728C106.437 60.7566 107.976 62.222 109.848 63.0228C111.898 63.9004 114.203 63.9174 116.431 63.9259C124.656 63.9515 132.881 63.977 141.106 63.9941C143.002 64.0026 144.967 63.9941 146.711 63.2529C147.323 63.0228 147.885 62.665 148.395 62.2475Z" fill="white"/>
<path d="M83.7439 178.837L144.891 157.428L96.4577 130.744L33.9118 153.071L80.9256 178.608C81.8024 179.067 82.8045 179.15 83.7439 178.837Z" fill="#B42331"/>
<path d="M140.132 134.246C140.132 134.246 130.925 144.878 141.572 156.49L83.9532 178.108C82.5336 178.65 80.9261 178.316 79.8406 177.253L77.7529 175.231C77.7529 175.231 70.4879 155.364 70.4879 154.864C70.4879 154.363 84.9971 142.627 84.9971 142.627C84.9971 142.627 108.901 139.75 109.527 139.75C110.153 139.75 140.132 134.246 140.132 134.246Z" fill="#DAEEF7"/>
<path d="M77.5021 171.604C77.8779 171.604 120.299 157.616 120.299 157.616C120.299 157.616 78.0031 172.979 77.8778 172.604C77.7526 172.229 77.5021 171.604 77.5021 171.604Z" fill="#DAEEF7"/>
<path d="M143.388 133.684V134.997L82.5746 155.802C82.5746 155.802 78.8168 160.492 79.1926 166.872C79.5683 173.251 80.9462 178.275 82.9503 178.358C82.9503 178.358 81.6769 178.462 81.0506 178.066C80.4034 177.67 78.9212 176.336 78.9212 176.336C78.9212 176.336 76.3951 164.995 76.2699 164.703C76.1446 164.432 77.5851 155.177 78.5454 154.489C79.5057 153.801 78.6915 152.717 83.3052 151.862C87.8981 151.028 124.14 134.768 125.016 134.997C125.893 135.205 133.409 134.872 133.805 134.997C134.223 135.122 143.388 133.684 143.388 133.684Z" fill="#B02432"/>
<path d="M81.6357 155.239C81.6357 155.239 73.8906 168.372 81.6357 178.9L30.0709 151.007C30.0709 151.007 23.9958 138.583 31.8245 130.765L81.6357 155.239Z" fill="#DB2235"/>
<path d="M81.6351 155.239L143.388 133.684L87.6267 114.755L31.8239 130.744L55.9995 143.5L81.6351 155.239Z" fill="#F51129"/>
<path d="M91.51 159.492L136.457 143.878C136.436 144.211 136.436 144.545 136.436 144.878L91.51 159.492Z" fill="#DAEEF7"/>
<path d="M136.979 148.527C137.104 148.985 137.25 149.444 137.417 149.923L104.432 160.68L136.979 148.527Z" fill="#DAEEF7"/>
<path d="M91.4689 148.443L29.09 129.952L75.9786 106.896L139.819 126.2L94.2664 148.255C93.4313 148.652 92.4084 148.714 91.4689 148.443Z" fill="#3D5ABF"/>
<path d="M32.5135 109.898C32.5135 109.898 42.3254 119.07 32.3464 129.118L91.1972 147.818C92.6586 148.276 94.2452 147.985 95.2681 147.088L97.2514 145.337C97.2514 145.337 103.368 128.159 103.326 127.742C103.306 127.305 88.1075 117.152 88.1075 117.152C88.1075 117.152 64.0369 114.672 63.4106 114.672C62.7843 114.672 32.5135 109.898 32.5135 109.898Z" fill="#DAEEF7"/>
<path d="M97.2939 142.189C96.9182 142.189 53.683 130.098 53.683 130.098C53.683 130.098 96.8764 143.357 96.9599 143.044C97.0852 142.731 97.2939 142.189 97.2939 142.189Z" fill="#DAEEF7"/>
<path d="M29.2151 109.418L29.2986 110.544L91.3226 128.514C91.3226 128.514 95.3517 132.558 95.3309 138.062C95.3309 143.565 94.2244 147.922 92.2412 147.985C92.2412 147.985 93.5146 148.068 94.12 147.734C94.7255 147.401 96.1451 146.254 96.1451 146.254C96.1451 146.254 98.0031 136.456 98.1283 136.206C98.2327 135.956 96.2703 127.972 95.2474 127.388C94.2453 126.804 94.9969 125.845 90.3414 125.116C85.686 124.386 48.5258 110.356 47.6699 110.544C46.814 110.732 39.2776 110.44 38.8809 110.544C38.4634 110.669 29.2151 109.418 29.2151 109.418Z" fill="#3D5ABF"/>
<path d="M91.9997 128.055C91.9997 128.055 100.496 139.396 93.3567 148.485L143.314 124.386C143.314 124.386 150.267 114.254 142 107.5L91.9997 128.055Z" fill="#3D5ABF"/>
<path d="M92.0053 128.5L29.0001 109.863L83.6756 93.4985L142 107.5L118 118L92.0053 128.5Z" fill="#1F49CC"/>
<path d="M82.5757 131.724L36.731 118.236C36.7727 118.528 36.7936 118.799 36.7936 119.112L82.5757 131.724Z" fill="#DAEEF7"/>
<path d="M36.5015 122.26C36.3971 122.656 36.2718 123.052 36.1257 123.469L69.7368 132.766L36.5015 122.26Z" fill="#DAEEF7"/>
<path opacity="0.3" d="M132.22 110.565C132.22 110.565 140.633 119.32 134.057 128.972L130.341 130.744C130.341 130.744 135.122 119.195 128.024 112.399L132.22 110.565Z" fill="#3D5ABF"/>
<path d="M77.1063 125.845L129.068 108.23L91.2397 86.3827L38.0673 104.749L74.8308 125.658C75.478 126.033 76.313 126.116 77.1063 125.845Z" fill="#B02432"/>
<path d="M126.917 89.2177C126.917 89.2177 118.546 97.9316 126.416 107.459L77.3563 125.241C76.1454 125.679 74.8511 125.407 74.0369 124.553L72.4712 122.906C72.4712 122.906 68.0036 106.604 68.0453 106.208C68.0871 105.791 80.9261 96.1597 80.9261 96.1597C80.9261 96.1597 100.821 93.7831 101.343 93.7831C101.823 93.7623 126.917 89.2177 126.917 89.2177Z" fill="#DAEEF7"/>
<path d="M72.5127 119.925C72.8259 119.925 108.817 108.418 108.817 108.418C108.817 108.418 72.8259 121.051 72.7632 120.738C72.6797 120.425 72.5127 119.925 72.5127 119.925Z" fill="#DAEEF7"/>
<path d="M129.631 88.7592L129.527 89.8432L77.8786 106.958C77.8786 106.958 74.4339 110.815 74.2461 116.027C74.079 121.259 74.8306 125.387 76.459 125.449C76.459 125.449 75.4151 125.533 74.9141 125.22C74.4131 124.907 73.3066 123.802 73.3066 123.802C73.3066 123.802 72.0958 114.505 72.0123 114.275C71.9288 114.046 73.8285 106.458 74.6636 105.895C75.5195 105.332 74.935 104.436 78.7762 103.748C82.6175 103.06 113.682 89.6973 114.392 89.8849C115.101 90.0725 121.302 89.7807 121.636 89.8849C121.991 89.9474 129.631 88.7592 129.631 88.7592Z" fill="#B02432"/>
<path d="M76.9995 106.479C76.9995 106.479 69.6301 117.256 75.2041 125.887L34.8708 103.039C34.8708 103.039 30.4641 92.9208 37.4995 86.5L76.9995 106.479Z" fill="#DB2235"/>
<path d="M76.9995 106.5L129.631 88.7592L85.1849 73.2701L37.4995 86.5L56.9995 97L76.9995 106.5Z" fill="#F51129"/>
<path d="M84.9766 109.96L123.16 97.1186C123.118 97.3897 123.097 97.6607 123.076 97.9317L84.9766 109.96Z" fill="#DAEEF7"/>
<path d="M123.222 100.934C123.284 101.309 123.368 101.684 123.493 102.08L95.5187 110.919L123.222 100.934Z" fill="#DAEEF7"/>
<path d="M117.356 103.06C117.356 103.06 120.488 106.229 119.068 110.502C119.068 110.502 118.108 108.292 117.169 107.646C117.169 107.646 117.336 110.335 116.208 111.44C116.208 111.44 115.227 105.478 112.221 104.894L117.356 103.06Z" fill="#DB2235"/>
<path d="M81.6367 137.895C81.6367 137.895 79.7161 140.146 79.8622 143.002C79.8622 143.002 78.7975 141.543 78.547 140.459C78.547 140.459 77.4823 140.959 76.856 142.21C76.856 142.21 75.666 139.187 76.8977 136.581L81.6367 137.895Z" fill="#FEC269"/>
<path d="M111.365 152.592C111.365 152.592 114.622 156.949 113.515 163.932C113.515 163.932 112.409 161.076 109.862 159.492C109.862 159.492 108.755 164.078 108.108 165.683C108.108 165.683 105.561 156.427 102.555 155.677L111.365 152.592Z" fill="#1F49CC"/>
</svg>
