<svg width="286" height="257" viewBox="0 0 286 257" fill="none" xmlns="http://www.w3.org/2000/svg">
<g clip-path="url(#clip0)">
<path d="M149.814 256.544L0.864502 204.516L118.845 139.671L271.202 193.928L156.629 255.987C154.544 257.101 152.052 257.304 149.814 256.544Z" fill="#3D5ABF"/>
<path d="M12.4593 148.182C12.4593 148.182 34.8857 174.018 8.95044 202.236L149.306 254.771C152.764 256.088 156.68 255.278 159.324 252.694L164.41 247.78C164.41 247.78 182.107 199.501 182.107 198.285C182.107 197.069 146.763 168.547 146.763 168.547C146.763 168.547 88.4853 161.556 86.9597 161.556C85.4341 161.556 12.4593 148.182 12.4593 148.182Z" fill="#DAEEF7"/>
<path d="M165.019 238.965C164.104 238.965 60.7698 204.972 60.7698 204.972C60.7698 204.972 163.799 242.308 164.104 241.397C164.409 240.485 165.019 238.965 165.019 238.965Z" fill="#DAEEF7"/>
<path d="M4.52588 146.814V150.005L152.662 200.564C152.662 200.564 161.816 211.963 160.9 227.465C159.985 242.967 156.629 255.176 151.747 255.379C151.747 255.379 154.849 255.632 156.374 254.67C157.951 253.707 161.561 250.465 161.561 250.465C161.561 250.465 167.715 222.906 168.02 222.247C168.325 221.588 164.816 199.095 162.477 197.423C160.138 195.752 162.121 193.117 150.882 191.04C139.694 189.014 51.4128 149.499 49.2769 150.056C47.1411 150.563 28.8338 149.752 27.8676 150.056C26.8506 150.309 4.52588 146.814 4.52588 146.814Z" fill="#1F49CC"/>
<path d="M154.95 199.196C154.95 199.196 173.817 231.113 154.95 256.696L280.559 188.912C280.559 188.912 295.357 158.719 276.287 139.721L154.95 199.196Z" fill="#3D5ABF"/>
<path d="M156 200L4.52588 146.814L140.305 100.814L278 140.5L234.5 163.5L156 200Z" fill="#1F49CC"/>
<path d="M130.846 209.531L21.4094 171.587C21.4603 172.397 21.4603 173.208 21.4603 174.018L130.846 209.531Z" fill="#DAEEF7"/>
<path d="M20.138 182.884C19.8329 183.998 19.4769 185.113 19.0701 186.278L99.4186 212.419L20.138 182.884Z" fill="#DAEEF7"/>
<path d="M130.999 182.681L282.949 137.746L168.732 81.6646L13.2219 128.576L124.184 182.175C126.218 183.188 128.659 183.34 130.999 182.681Z" fill="#C0192A"/>
<path d="M274.609 89.0103C274.609 89.0103 250.708 111.301 275.016 135.719L131.66 181.111C128.1 182.225 124.235 181.516 121.743 179.338L116.912 175.082C116.912 175.082 102.012 133.338 102.114 132.325C102.165 131.261 139.186 106.589 139.186 106.589C139.186 106.589 197.82 100.561 199.346 100.561C200.871 100.561 274.609 89.0103 274.609 89.0103Z" fill="#DAEEF7"/>
<path d="M116.811 167.483C117.726 167.483 223.043 138.1 223.043 138.1C223.043 138.1 117.828 170.32 117.624 169.56C117.319 168.8 116.811 167.483 116.811 167.483Z" fill="#DAEEF7"/>
<path d="M282.593 87.8451L282.389 90.5808L131.304 134.25C131.304 134.25 121.489 144.078 121.54 157.452C121.54 170.827 124.235 181.415 129.066 181.567C129.066 181.567 125.964 181.769 124.489 180.959C123.014 180.148 119.556 177.362 119.556 177.362C119.556 177.362 115.03 153.552 114.725 152.944C114.471 152.336 119.251 132.933 121.743 131.514C124.184 130.096 122.353 127.765 133.694 125.992C145.034 124.219 235.553 90.1248 237.638 90.5808C239.723 91.0367 258.081 90.3275 259.047 90.5808C260.065 90.8847 282.593 87.8451 282.593 87.8451Z" fill="#C0192A"/>
<path d="M125.862 133.5C125.862 133.5 108.47 160.695 125.862 182.783L4.1699 124.219C4.1699 124.219 -10.6381 98.414 9.49985 82L125.862 133.5Z" fill="#DB2235"/>
<path d="M126 134L282.593 87.845L149.459 48.0767L9 82L66.5 108L126 134Z" fill="#F51129"/>
<path d="M152.611 142.052L264.286 109.274C264.184 109.984 264.133 110.642 264.133 111.402L152.611 142.052Z" fill="#DAEEF7"/>
<path d="M264.896 119.052C265.15 120.014 265.455 120.977 265.811 121.99L183.937 144.585L264.896 119.052Z" fill="#DAEEF7"/>
<path opacity="0.3" d="M32.4998 92.5C32.4998 92.5 11.0131 113.393 27.1734 135.873L36.3053 140C36.3053 140 24.5571 112.829 42 97L32.4998 92.5Z" fill="#81121D"/>
<path d="M165.986 127.765L39.4116 84.9574L131.558 31.8654L261.082 76.4971L171.58 127.309C169.902 128.221 167.868 128.424 165.986 127.765Z" fill="#1F49CC"/>
<path d="M44.6494 38.7552C44.6494 38.7552 65.0417 59.9312 45.8699 83.083L165.376 126.296C168.325 127.36 171.478 126.702 173.461 124.624L177.275 120.622C177.275 120.622 188.158 81.0059 188.056 80.0434C187.955 79.0302 156.68 55.6251 156.68 55.6251C156.68 55.6251 108.216 49.8498 106.945 49.8498C105.724 49.7991 44.6494 38.7552 44.6494 38.7552Z" fill="#DAEEF7"/>
<path d="M177.173 113.378C176.411 113.378 88.7393 85.4134 88.7393 85.4134C88.7393 85.4134 176.411 116.114 176.563 115.354C176.767 114.594 177.173 113.378 177.173 113.378Z" fill="#DAEEF7"/>
<path d="M37.9875 37.6406L38.2418 40.275L164.053 81.8671C164.053 81.8671 172.444 91.2393 172.902 103.904C173.309 116.62 171.478 126.651 167.511 126.803C167.511 126.803 170.054 127.006 171.274 126.246C172.495 125.486 175.19 122.801 175.19 122.801C175.19 122.801 178.14 100.206 178.343 99.6489C178.547 99.0917 173.919 80.6513 171.885 79.2834C169.8 77.9156 171.224 75.7372 161.867 74.0654C152.51 72.3936 76.8396 39.9203 75.1106 40.3763C73.3816 40.8322 58.2781 40.123 57.4644 40.3763C56.6508 40.5283 37.9875 37.6406 37.9875 37.6406Z" fill="#1F49CC"/>
<path d="M166.5 81.5C166.5 81.5 183.785 106.893 170.207 127.867L268.405 72.343C268.405 72.343 280.638 48.1034 263.5 32.5L166.5 81.5Z" fill="#1F49CC"/>
<path d="M167 81.5L37.9875 37.6406L146.305 0L263.5 32.5L222.5 54.5L167 81.5Z" fill="#3D5ABF"/>
<path d="M146.814 89.1622L53.8032 57.9554C53.9049 58.614 53.9558 59.2726 54.0066 59.9312L146.814 89.1622Z" fill="#DAEEF7"/>
<path d="M53.6504 67.2263C53.4978 68.1382 53.2944 69.0501 52.9893 70.0126L121.133 91.4926L53.6504 67.2263Z" fill="#DAEEF7"/>
<path d="M67.8895 72.3936C67.8895 72.3936 60.2615 80.094 63.7195 90.4794C63.7195 90.4794 66.0588 85.1094 68.3472 83.5389C68.3472 83.5389 67.9403 90.0741 70.6864 92.7591C70.6864 92.7591 73.0766 78.2702 80.3995 76.8517L67.8895 72.3936Z" fill="#FF8228"/>
<path d="M154.95 157.047C154.95 157.047 159.629 162.519 159.273 169.459C159.273 169.459 161.867 165.913 162.477 163.278C162.477 163.278 165.07 164.494 166.596 167.534C166.596 167.534 169.495 160.188 166.494 153.856L154.95 157.047Z" fill="#1F49CC"/>
<path d="M82.4843 192.763C82.4843 192.763 74.5511 203.351 77.2464 220.322C77.2464 220.322 79.9416 213.381 86.1457 209.531C86.1457 209.531 88.841 220.677 90.4174 224.577C90.4174 224.577 96.6216 202.084 103.944 200.26L82.4843 192.763Z" fill="#1F49CC"/>
</g>
<defs>
<clipPath id="clip0">
<rect width="286" height="257" fill="white"/>
</clipPath>
</defs>
</svg>
