<svg width="2648" height="2029" viewBox="0 0 2648 2029" fill="none" xmlns="http://www.w3.org/2000/svg">
<path fill-rule="evenodd" clip-rule="evenodd" d="M2439 1635.18C2439 1667.12 2417.14 1693 2390.18 1693H1655.99V1906.05C1710.3 1910.15 1753.27 1963.64 1753.27 2029H908.505C908.505 1994.97 920.136 1964.18 938.962 1941.88C956.887 1920.64 981.307 1907.12 1008.4 1905.9V1693H253.823C226.863 1693 205 1667.12 205 1635.18V1336H2436.7C2437.97 1336 2439 1337.22 2439 1338.73V1635.18Z" fill="#4648ED"/>
<path fill-rule="evenodd" clip-rule="evenodd" d="M2568.73 1692.95H78.741C35.3849 1692.95 0.236328 1657.8 0.236328 1614.44V79.4585C0.236328 36.0989 35.3849 0.949219 78.741 0.949219H2568.73C2612.09 0.949219 2647.24 36.0989 2647.24 79.4585V1614.44C2647.24 1657.8 2612.09 1692.95 2568.73 1692.95Z" fill="#4649EE"/>
<path fill-rule="evenodd" clip-rule="evenodd" d="M1403 1572.5C1403 1608.12 1374.12 1637 1338.5 1637C1302.88 1637 1274 1608.12 1274 1572.5C1274 1536.88 1302.88 1508 1338.5 1508C1374.12 1508 1403 1536.88 1403 1572.5Z" fill="#7084F4"/>
<path fill-rule="evenodd" clip-rule="evenodd" d="M104 1474V150.266C104 114.773 129.893 86 161.832 86H2481.17C2513.11 86 2539 114.773 2539 150.266V1470.97C2539 1472.64 2537.78 1474 2536.27 1474H104Z" fill="#91B3FA"/>
<path fill-rule="evenodd" clip-rule="evenodd" d="M2378 888.069V1255.93C2378 1278.61 2348.36 1297 2311.8 1297L337.197 1297C300.637 1297 271 1278.61 271 1255.93V888.069C271 865.387 300.637 847 337.197 847L2311.8 847C2348.36 847 2378 865.387 2378 888.069Z" fill="#BDD0FB"/>
<path fill-rule="evenodd" clip-rule="evenodd" d="M1187.62 915.414H2215.58C2229.83 915.414 2225.5 931.754 2225.5 946C2225.5 960.246 2229.83 967.002 2215.58 967.002H1187.62V915.414Z" fill="white"/>
<path fill-rule="evenodd" clip-rule="evenodd" d="M1187.62 1046.25H1656.32C1670.56 1046.25 1667 1059.25 1667 1073.5C1667 1087.75 1670.56 1097.84 1656.32 1097.84H1187.62V1046.25Z" fill="white"/>
<path fill-rule="evenodd" clip-rule="evenodd" d="M1187.62 1176.35H1910.67C1924.92 1176.35 1921 1186.75 1921 1201C1921 1215.25 1924.92 1227.93 1910.67 1227.93H1187.62V1176.35Z" fill="white"/>
<path fill-rule="evenodd" clip-rule="evenodd" d="M1123 915H638.166C631.447 915 630.5 925.641 630.5 940C630.5 954.359 631.447 967 638.166 967H1123V915Z" fill="white"/>
<path fill-rule="evenodd" clip-rule="evenodd" d="M1123 1056H405.487C383.679 1056 388.5 1067.42 388.5 1081.5C388.5 1095.58 383.679 1107 405.487 1107H1123V1056Z" fill="white"/>
<path fill-rule="evenodd" clip-rule="evenodd" d="M1123 1196.18H538.386C526.868 1196.18 528.5 1208.25 528.5 1222.5C528.5 1236.75 526.868 1247.76 538.386 1247.76H1123V1196.18Z" fill="white"/>
<path fill-rule="evenodd" clip-rule="evenodd" d="M2392 229.069V596.931C2392 619.613 2362.36 638 2325.8 638L351.197 638C314.637 638 285 619.613 285 596.931V229.069C285 206.387 314.637 188 351.197 188L2325.8 188C2362.36 188 2392 206.387 2392 229.069Z" fill="#BDD0FB"/>
<path fill-rule="evenodd" clip-rule="evenodd" d="M1322.39 221C1428.65 221 1514.79 306.81 1514.79 412.663C1514.79 518.515 1428.65 604.326 1322.39 604.326C1216.14 604.326 1130 518.515 1130 412.663C1130 306.81 1216.14 221 1322.39 221ZM1322.39 308.83C1264.74 308.83 1217.99 355.318 1217.99 412.663C1217.99 470.008 1264.74 516.496 1322.39 516.496C1380.05 516.496 1426.79 470.008 1426.79 412.663C1426.79 355.318 1380.05 308.83 1322.39 308.83Z" fill="white"/>
<path fill-rule="evenodd" clip-rule="evenodd" d="M1505.81 355.672L1421.68 381.654C1412.4 351.837 1390.05 327.758 1361.32 316.077L1394.54 234.45C1447.54 256.039 1488.74 300.557 1505.81 355.672Z" fill="#E93737"/>
<path fill-rule="evenodd" clip-rule="evenodd" d="M1246.04 483.688L1181.68 543.801C1160.74 521.396 1145.1 493.982 1136.74 463.552L1221.53 439.937C1226.06 456.536 1234.6 471.486 1246.04 483.688Z" fill="#1BC0D7"/>
<path fill-rule="evenodd" clip-rule="evenodd" d="M565.394 221C671.651 221 757.788 306.81 757.788 412.663C757.788 518.515 671.651 604.326 565.394 604.326C459.138 604.326 373 518.515 373 412.663C373 306.81 459.138 221 565.394 221ZM565.394 308.83C507.736 308.83 460.994 355.318 460.994 412.663C460.994 470.008 507.736 516.496 565.394 516.496C623.053 516.496 669.794 470.008 669.794 412.663C669.794 355.318 623.053 308.83 565.394 308.83Z" fill="white"/>
<path fill-rule="evenodd" clip-rule="evenodd" d="M748.806 355.672L664.681 381.654C655.4 351.837 633.054 327.758 604.322 316.077L637.539 234.45C690.536 256.039 731.739 300.557 748.806 355.672Z" fill="#E93737"/>
<path fill-rule="evenodd" clip-rule="evenodd" d="M489.036 483.688L424.679 543.801C403.74 521.396 388.096 493.982 379.738 463.552L464.535 439.937C469.062 456.536 477.596 471.486 489.036 483.688Z" fill="#1BC0D7"/>
<path fill-rule="evenodd" clip-rule="evenodd" d="M2079.42 221C2185.68 221 2271.81 306.81 2271.81 412.663C2271.81 518.515 2185.68 604.326 2079.42 604.326C1973.16 604.326 1887.03 518.515 1887.03 412.663C1887.03 306.81 1973.16 221 2079.42 221ZM2079.42 308.83C2021.76 308.83 1975.02 355.318 1975.02 412.663C1975.02 470.008 2021.76 516.496 2079.42 516.496C2137.08 516.496 2183.82 470.008 2183.82 412.663C2183.82 355.318 2137.08 308.83 2079.42 308.83Z" fill="white"/>
<path fill-rule="evenodd" clip-rule="evenodd" d="M2256.07 351.621L2171.94 377.603C2162.66 347.786 2140.32 323.707 2111.58 312.026L2144.8 230.399C2197.8 251.988 2239 296.506 2256.07 351.621Z" fill="#E93737"/>
<path fill-rule="evenodd" clip-rule="evenodd" d="M1996.3 479.637L1931.94 539.75C1911 517.345 1895.36 489.931 1887 459.501L1971.8 435.886C1976.32 452.485 1984.86 467.435 1996.3 479.637Z" fill="#1BC0D7"/>
</svg>
